<svg width="60" height="60" viewBox="0 0 60 60" fill="none" xmlns="http://www.w3.org/2000/svg">
<path d="M20.5049 7.5V7.50098C21.3824 7.49889 22.229 7.72687 22.9902 8.16406L23.2705 8.33789C23.9087 8.76284 24.4418 9.33008 24.8271 9.99609H24.8281C25.2683 10.7571 25.5002 11.6213 25.5 12.501V47.499C25.5 47.5159 25.4996 47.5329 25.499 47.5498L25.4912 47.7803C25.4907 47.7961 25.4903 47.8123 25.4893 47.8281C25.439 48.5929 25.2135 49.3377 24.8281 50.0039H24.8271C24.4418 50.67 23.9087 51.2372 23.2705 51.6621L22.9902 51.8359C22.229 52.2731 21.3659 52.5011 20.4883 52.499V52.5H14.5117V52.499C13.7441 52.5008 12.9877 52.3266 12.3008 51.9902L12.0098 51.8359C11.2469 51.3977 10.6134 50.7652 10.1729 50.0039H10.1719C9.78649 49.3377 9.56099 48.5929 9.51074 47.8281C9.50971 47.8123 9.50933 47.7961 9.50879 47.7803L9.50098 47.5498C9.5004 47.5329 9.5 47.5159 9.5 47.499V12.501L9.51074 12.1719C9.56108 11.4068 9.7867 10.6619 10.1719 9.99609H10.1729C10.6134 9.23477 11.2469 8.60229 12.0098 8.16406L12.3008 8.00977C12.9877 7.67337 13.7441 7.49915 14.5117 7.50098L20.5049 7.5Z" fill="url(#paint0_linear_207_1162)" stroke="#ECECEC" stroke-width="3" stroke-linecap="round" stroke-linejoin="round"/>
<path d="M45.5049 7.5V7.50098C46.3824 7.49889 47.229 7.72687 47.9902 8.16406L48.2705 8.33789C48.9087 8.76284 49.4418 9.33008 49.8271 9.99609H49.8281C50.2683 10.7571 50.5002 11.6213 50.5 12.501V47.499C50.5 47.5159 50.4996 47.5329 50.499 47.5498L50.4912 47.7803C50.4907 47.7961 50.4903 47.8123 50.4893 47.8281C50.439 48.5929 50.2135 49.3377 49.8281 50.0039H49.8271C49.4418 50.67 48.9087 51.2372 48.2705 51.6621L47.9902 51.8359C47.229 52.2731 46.3659 52.5011 45.4883 52.499V52.5H39.5117V52.499C38.7441 52.5008 37.9877 52.3266 37.3008 51.9902L37.0098 51.8359C36.2469 51.3977 35.6134 50.7652 35.1729 50.0039H35.1719C34.7865 49.3377 34.561 48.5929 34.5107 47.8281C34.5097 47.8123 34.5093 47.7961 34.5088 47.7803L34.501 47.5498C34.5004 47.5329 34.5 47.5159 34.5 47.499V12.501L34.5107 12.1719C34.5611 11.4068 34.7867 10.6619 35.1719 9.99609H35.1729C35.6134 9.23477 36.2469 8.60229 37.0098 8.16406L37.3008 8.00977C37.9877 7.67337 38.7441 7.49915 39.5117 7.50098L45.5049 7.5Z" fill="url(#paint1_linear_207_1162)" stroke="#ECECEC" stroke-width="3" stroke-linecap="round" stroke-linejoin="round"/>
<defs>
<linearGradient id="paint0_linear_207_1162" x1="17.5" y1="9" x2="17.5" y2="51" gradientUnits="userSpaceOnUse">
<stop stop-color="#00F2FF"/>
<stop offset="1" stop-color="#4D4DFF"/>
</linearGradient>
<linearGradient id="paint1_linear_207_1162" x1="42.5" y1="9" x2="42.5" y2="51" gradientUnits="userSpaceOnUse">
<stop stop-color="#00F2FF"/>
<stop offset="1" stop-color="#4D4DFF"/>
</linearGradient>
</defs>
</svg>
