<svg width="75" height="54" viewBox="0 0 75 54" fill="none" xmlns="http://www.w3.org/2000/svg">
<g filter="url(#filter0_d_382_909)">
<circle cx="21" cy="34.6611" r="10" stroke="#FF00FF" stroke-width="3"/>
<path d="M34.3184 43.2819C38.7199 43.667 42.6001 40.411 42.9852 36.0096C43.3703 31.6081 40.1144 27.7279 35.7129 27.3428" stroke="#FF00FF" stroke-width="3" stroke-linecap="round"/>
<path d="M46.4034 43.3295C50.2546 43.6665 53.6499 40.8175 53.9868 36.9663C54.3238 33.115 51.4748 29.7198 47.6235 29.3828" stroke="#FF00FF" stroke-width="3" stroke-linecap="round"/>
<path d="M57.4883 43.3762C60.7894 43.665 63.6996 41.2231 63.9884 37.922C64.2772 34.6209 61.8353 31.7107 58.5342 31.4219" stroke="#FF00FF" stroke-width="3" stroke-linecap="round"/>
</g>
<path d="M19.8699 19.6053C28.6655 10.5306 39.2652 11.3627 46.9834 18.927" stroke="#FF00FF" stroke-width="3" stroke-linecap="round" stroke-linejoin="round"/>
<path d="M40.5483 19.9717L48.2244 20.5577L47.7863 12.8718" stroke="#FF00FF" stroke-width="3" stroke-linecap="round" stroke-linejoin="round"/>
<defs>
<filter id="filter0_d_382_909" x="5.5" y="21.1611" width="64.0117" height="31" filterUnits="userSpaceOnUse" color-interpolation-filters="sRGB">
<feFlood flood-opacity="0" result="BackgroundImageFix"/>
<feColorMatrix in="SourceAlpha" type="matrix" values="0 0 0 0 0 0 0 0 0 0 0 0 0 0 0 0 0 0 127 0" result="hardAlpha"/>
<feOffset dy="2"/>
<feGaussianBlur stdDeviation="2"/>
<feComposite in2="hardAlpha" operator="out"/>
<feColorMatrix type="matrix" values="0 0 0 0 0 0 0 0 0 0 0 0 0 0 0 0 0 0 0.25 0"/>
<feBlend mode="normal" in2="BackgroundImageFix" result="effect1_dropShadow_382_909"/>
<feBlend mode="normal" in="SourceGraphic" in2="effect1_dropShadow_382_909" result="shape"/>
</filter>
</defs>
</svg>
