<svg width="60" height="60" viewBox="0 0 60 60" fill="none" xmlns="http://www.w3.org/2000/svg">
<path d="M27.5426 7.03513C27.6497 6.46163 27.9541 5.94367 28.4029 5.57092C28.8517 5.19818 29.4167 4.99414 30.0001 4.99414C30.5835 4.99414 31.1486 5.19818 31.5974 5.57092C32.0462 5.94367 32.3505 6.46163 32.4576 7.03513L35.0851 20.9301C35.2717 21.918 35.7518 22.8267 36.4627 23.5376C37.1736 24.2484 38.0823 24.7285 39.0701 24.9151L52.9651 27.5426C53.5386 27.6497 54.0566 27.9541 54.4293 28.4029C54.8021 28.8517 55.0061 29.4167 55.0061 30.0001C55.0061 30.5835 54.8021 31.1486 54.4293 31.5974C54.0566 32.0462 53.5386 32.3505 52.9651 32.4576L39.0701 35.0851C38.0823 35.2717 37.1736 35.7518 36.4627 36.4627C35.7518 37.1736 35.2717 38.0823 35.0851 39.0701L32.4576 52.9651C32.3505 53.5386 32.0462 54.0566 31.5974 54.4293C31.1486 54.8021 30.5835 55.0061 30.0001 55.0061C29.4167 55.0061 28.8517 54.8021 28.4029 54.4293C27.9541 54.0566 27.6497 53.5386 27.5426 52.9651L24.9151 39.0701C24.7285 38.0823 24.2484 37.1736 23.5376 36.4627C22.8267 35.7518 21.918 35.2717 20.9301 35.0851L7.03513 32.4576C6.46163 32.3505 5.94367 32.0462 5.57092 31.5974C5.19818 31.1486 4.99414 30.5835 4.99414 30.0001C4.99414 29.4167 5.19818 28.8517 5.57092 28.4029C5.94367 27.9541 6.46163 27.6497 7.03513 27.5426L20.9301 24.9151C21.918 24.7285 22.8267 24.2484 23.5376 23.5376C24.2484 22.8267 24.7285 21.918 24.9151 20.9301L27.5426 7.03513Z" stroke="#ECECEC" stroke-width="3" stroke-linecap="round" stroke-linejoin="round"/>
<path d="M50 5V15" stroke="#ECECEC" stroke-width="3" stroke-linecap="round" stroke-linejoin="round"/>
<path d="M55 10H45" stroke="#ECECEC" stroke-width="3" stroke-linecap="round" stroke-linejoin="round"/>
<path d="M10 55C12.7614 55 15 52.7614 15 50C15 47.2386 12.7614 45 10 45C7.23858 45 5 47.2386 5 50C5 52.7614 7.23858 55 10 55Z" stroke="#ECECEC" stroke-width="3" stroke-linecap="round" stroke-linejoin="round"/>
</svg>
