<svg width="60" height="60" viewBox="0 0 60 60" fill="none" xmlns="http://www.w3.org/2000/svg">
<path d="M35.001 6C35.8548 6 36.7005 6.1683 37.4893 6.49512C38.278 6.82193 38.9951 7.30049 39.5986 7.9043L54.5957 22.9043C55.8142 24.1232 56.499 25.7765 56.499 27.5C56.499 29.2235 55.8142 30.8768 54.5957 32.0957L35.7041 51H52.5C53.3283 51 53.9999 51.6717 54 52.5C53.9999 53.3283 53.3283 54 52.5 54H20V53.999C19.1441 54.0005 18.2959 53.8338 17.5049 53.5068C16.7132 53.1795 15.9939 52.699 15.3887 52.0928L5.40332 42.0947V42.0938C4.18565 40.875 3.50103 39.2229 3.50098 37.5C3.50102 35.7765 4.18584 34.1232 5.4043 32.9043L30.4043 7.9043C31.0077 7.30072 31.7242 6.82187 32.5127 6.49512C33.3014 6.16832 34.1472 6.00002 35.001 6ZM7.52539 35.0254C6.86936 35.6817 6.50102 36.572 6.50098 37.5C6.50102 38.4279 6.86941 39.3183 7.52539 39.9746L7.52637 39.9756L17.5117 49.9727C17.8377 50.2992 18.225 50.5581 18.6514 50.7344C19.0777 50.9106 19.5348 51.001 19.9961 51H31.4629L32.6602 49.8008L12.7051 29.8457L7.52539 35.0254ZM35.001 9C34.5413 9.00002 34.0858 9.09064 33.6611 9.2666C33.2365 9.44258 32.8503 9.70032 32.5254 10.0254L14.8262 27.7246L34.7803 47.6787L52.4736 29.9746C53.1297 29.3183 53.499 28.428 53.499 27.5C53.499 26.572 53.1297 25.6817 52.4736 25.0254V25.0244L37.4766 10.0254C37.1516 9.7003 36.7655 9.44256 36.3408 9.2666C35.9161 9.09063 35.4607 9 35.001 9Z" fill="url(#paint0_linear_207_1116)"/>
<defs>
<linearGradient id="paint0_linear_207_1116" x1="30" y1="6" x2="30" y2="54" gradientUnits="userSpaceOnUse">
<stop stop-color="#00F2FF"/>
<stop offset="1" stop-color="#FF00FF"/>
</linearGradient>
</defs>
</svg>
