<svg width="75" height="54" viewBox="0 0 75 54" fill="none" xmlns="http://www.w3.org/2000/svg">
<circle cx="21" cy="34.6606" r="10" stroke="#ECECEC" stroke-width="3"/>
<path d="M34.3184 43.2819C38.7199 43.667 42.6001 40.411 42.9852 36.0096C43.3703 31.6081 40.1144 27.7279 35.7129 27.3428" stroke="#ECECEC" stroke-width="3" stroke-linecap="round"/>
<path d="M46.4034 43.3291C50.2546 43.666 53.6499 40.8171 53.9868 36.9658C54.3238 33.1145 51.4748 29.7193 47.6235 29.3823" stroke="#ECECEC" stroke-width="3" stroke-linecap="round"/>
<path d="M57.4883 43.3762C60.7894 43.665 63.6996 41.2231 63.9884 37.922C64.2772 34.6209 61.8353 31.7107 58.5342 31.4219" stroke="#ECECEC" stroke-width="3" stroke-linecap="round"/>
<path d="M19.8699 19.6048C28.6655 10.5301 39.2652 11.3622 46.9834 18.9265" stroke="#ECECEC" stroke-width="3" stroke-linecap="round" stroke-linejoin="round"/>
<path d="M40.5483 19.9712L48.2244 20.5572L47.7863 12.8713" stroke="#ECECEC" stroke-width="3" stroke-linecap="round" stroke-linejoin="round"/>
</svg>
