<svg width="60" height="60" viewBox="0 0 60 60" fill="none" xmlns="http://www.w3.org/2000/svg">
<path d="M52.4999 52.5002H19.9999C19.3407 52.5017 18.6876 52.3728 18.0784 52.121C17.4691 51.8691 16.9157 51.4992 16.4499 51.0327L6.46491 41.0352C5.52755 40.0975 5.00098 38.826 5.00098 37.5002C5.00098 36.1744 5.52755 34.9028 6.46491 33.9652L31.4649 8.96518C31.9292 8.50067 32.4805 8.1322 33.0873 7.8808C33.694 7.6294 34.3444 7.5 35.0012 7.5C35.6579 7.5 36.3083 7.6294 36.915 7.8808C37.5218 8.1322 38.0731 8.50067 38.5374 8.96518L53.5349 23.9652C54.4723 24.9028 54.9988 26.1744 54.9988 27.5002C54.9988 28.826 54.4723 30.0975 53.5349 31.0352L32.0849 52.5002" stroke="#ECECEC" stroke-width="3" stroke-linecap="round" stroke-linejoin="round"/>
<path d="M12.7051 27.7251L34.7751 49.7951" stroke="#ECECEC" stroke-width="3" stroke-linecap="round" stroke-linejoin="round"/>
</svg>
