<svg width="60" height="60" viewBox="0 0 60 60" fill="none" xmlns="http://www.w3.org/2000/svg">
<path d="M39.1778 6C40.5259 6.01962 41.8119 6.58273 42.7556 7.56667L52.4667 17.4889C53.4297 18.4531 53.9808 19.767 54 21.1444V47.7778C54 49.1628 53.4615 50.4911 52.503 51.4704C51.5445 52.4498 50.2444 53 48.8889 53H13.1111C11.7556 53 10.4555 52.4498 9.49701 51.4704C8.53849 50.4911 8 49.1628 8 47.7778V11.2222C8 9.8372 8.53849 8.50891 9.49701 7.52955C10.4555 6.5502 11.7556 6 13.1111 6H39.1778Z" stroke="#00F2FF" stroke-width="3" stroke-linecap="round" stroke-linejoin="round"/>
<path d="M43 52V35.375C43 34.7451 42.7366 34.141 42.2678 33.6956C41.7989 33.2502 41.163 33 40.5 33H20.5C19.837 33 19.2011 33.2502 18.7322 33.6956C18.2634 34.141 18 34.7451 18 35.375V52" stroke="#00F2FF" stroke-width="3" stroke-linecap="round" stroke-linejoin="round"/>
<path d="M17.5 7.5V17.5C17.5 18.163 17.7634 18.7989 18.2322 19.2678C18.7011 19.7366 19.337 20 20 20H37.5" stroke="#00F2FF" stroke-width="3" stroke-linecap="round" stroke-linejoin="round"/>
</svg>
