<svg width="60" height="60" viewBox="0 0 60 60" fill="none" xmlns="http://www.w3.org/2000/svg">
<path d="M27.5 50V55" stroke="#ECECEC" stroke-width="3" stroke-linecap="round" stroke-linejoin="round"/>
<path d="M45.9398 36.2802C48.0863 35.3537 49.9865 33.9383 51.4888 32.1469C52.9911 30.3556 54.0539 28.2378 54.5923 25.9627C54.9623 24.4002 52.9448 23.5377 51.4723 24.1777C49.6326 24.9735 47.5961 25.1981 45.6272 24.8222C43.6582 24.4464 41.8477 23.4875 40.4304 22.07C39.0132 20.6525 38.0546 18.8417 37.6792 16.8727C37.3037 14.9037 37.5286 12.8673 38.3248 11.0277C38.9623 9.55523 38.0998 7.54023 36.5348 7.90773C33.4499 8.6407 30.6765 10.3324 28.6131 12.7399C26.5496 15.1475 25.3021 18.147 25.0498 21.3077" stroke="#ECECEC" stroke-width="3" stroke-linecap="round" stroke-linejoin="round"/>
<path d="M7.49991 50.0002C6.37626 48.5005 5.60416 46.7674 5.24074 44.9291C4.87732 43.0907 4.93187 41.1942 5.40037 39.3798C5.86887 37.5654 6.73931 35.8795 7.94731 34.4469C9.15531 33.0143 10.67 31.8717 12.3792 31.1035C14.0884 30.3353 15.9485 29.9612 17.8218 30.0089C19.6951 30.0567 21.5337 30.525 23.2016 31.3792C24.8695 32.2335 26.324 33.4518 27.4575 34.944C28.591 36.4363 29.3744 38.1643 29.7499 40.0002H32.4999C34.021 39.998 35.5069 40.4583 36.7603 41.3202C38.0137 42.182 38.9755 43.4046 39.5179 44.8258C40.0603 46.2469 40.1578 47.7994 39.7974 49.2772C39.437 50.7551 38.6357 52.0883 37.4999 53.1002" stroke="#ECECEC" stroke-width="3" stroke-linecap="round" stroke-linejoin="round"/>
<path d="M17.5 47.5V52.5" stroke="#ECECEC" stroke-width="3" stroke-linecap="round" stroke-linejoin="round"/>
</svg>
