<svg width="80" height="54" viewBox="0 0 80 54" fill="none" xmlns="http://www.w3.org/2000/svg">
<path d="M9.31088 37.9998C7.85098 45.4998 -0.421771 43.9998 3.47129 44.9998C6.58574 45.7998 10.2841 43.3332 11.744 41.9998V48.7498C11.744 49.3466 12.026 49.9189 12.528 50.3408C13.0299 50.7628 13.7107 50.9998 14.4205 50.9998H19.7735C20.4833 50.9998 21.1641 50.7628 21.666 50.3408C22.168 49.9189 22.45 49.3466 22.45 48.7498V44.4998C26.9919 45.6665 38.2169 47.2998 46.7816 44.4998V48.7498C46.7816 49.3466 47.1721 49.9189 47.8671 50.3408C48.5621 50.7628 49.5047 50.9998 50.4876 50.9998H54.0286C54.9459 50.9998 55.8257 50.7628 56.4744 50.3408C57.1231 49.9189 57.4875 49.3466 57.4875 48.7498V46.013M61.3806 34.9998L65.2736 32.9165C68.6801 30.4999 71.3867 30.6403 72.5731 31.4998C73.7595 32.3594 77.4395 32.9999 77.4395 34.9999C77.4395 37.5494 74.1866 39.831 72.5731 40.9999C71.9981 41.4165 69.9184 43.8868 66.7335 44.9999C63.3473 46.1834 58.8388 45.9999 57.9741 45.9999" stroke="#ECECEC" stroke-width="3" stroke-linecap="round" stroke-linejoin="round"/>
<path d="M61.3811 37.2181C61.3811 31.2609 58.5536 22.3381 53.5207 18.1258C48.4878 13.9135 41.5123 12 34.3947 12C27.2771 12 20.6003 13.9135 15.5674 18.1258C10.5345 22.3381 7.70703 31.2609 7.70703 37.2181M21.1253 37.2181L27.8346 25.9874H41.2531L47.9623 37.2181M15.608 19.7047L27.2374 25.6313M54.0753 19.112L41.104 26.224M61.2317 37.5833H7.70703M41.5518 26.2242L37.0496 13M31.2099 13L27.3168 26" stroke="#ECECEC" stroke-width="3" stroke-linecap="round" stroke-linejoin="round"/>
</svg>
