<svg width="60" height="60" viewBox="0 0 60 60" fill="none" xmlns="http://www.w3.org/2000/svg">
<path d="M47.5 6C51.0899 6 54 8.91015 54 12.5V47.5C54 51.0899 51.0899 54 47.5 54H12.5C8.91015 54 6 51.0899 6 47.5V12.5C6 8.91015 8.91015 6 12.5 6H47.5ZM12.5 9C10.567 9 9 10.567 9 12.5V47.5C9 49.433 10.567 51 12.5 51H47.5C49.433 51 51 49.433 51 47.5V12.5C51 10.567 49.433 9 47.5 9H12.5ZM24.1094 16.5039C24.1169 16.5045 24.1244 16.5052 24.1318 16.5059C24.1578 16.5081 24.1834 16.5121 24.209 16.5156C24.2285 16.5184 24.2481 16.5209 24.2676 16.5244C24.3026 16.5307 24.337 16.5392 24.3711 16.5479C24.3822 16.5507 24.3933 16.5536 24.4043 16.5566C24.4353 16.5653 24.466 16.5744 24.4961 16.585C24.5161 16.592 24.5359 16.5996 24.5557 16.6074C24.5792 16.6168 24.6021 16.6272 24.625 16.6377C24.645 16.6468 24.665 16.656 24.6846 16.666C24.7095 16.6788 24.7337 16.6929 24.7578 16.707C24.7754 16.7173 24.7933 16.7272 24.8105 16.7383C24.8311 16.7515 24.8513 16.7651 24.8711 16.7793C24.8941 16.7957 24.9163 16.8132 24.9385 16.8311C24.9531 16.8428 24.9673 16.8549 24.9814 16.8672C25.0024 16.8854 25.0229 16.9043 25.043 16.9238C25.058 16.9384 25.0725 16.9535 25.0869 16.9688C25.1068 16.9897 25.1267 17.0109 25.1455 17.0332C25.1608 17.0513 25.175 17.0701 25.1895 17.0889C25.2007 17.1035 25.2129 17.1176 25.2236 17.1328L31.2812 25.6855L38.8711 17.0127C39.4165 16.3893 40.3638 16.3258 40.9873 16.8711C41.6107 17.4165 41.6742 18.3638 41.1289 18.9873L33.0645 28.2021L42.2236 41.1328C42.2251 41.1349 42.226 41.1375 42.2275 41.1396C42.3053 41.2503 42.3673 41.3721 42.4131 41.502C42.4178 41.5154 42.4234 41.5285 42.4277 41.542C42.4514 41.6158 42.4684 41.6922 42.4805 41.7705C42.4836 41.791 42.487 41.8114 42.4893 41.832C42.4923 41.8595 42.4936 41.8872 42.4951 41.915C42.4962 41.9353 42.4977 41.9554 42.498 41.9756C42.4982 41.9837 42.5 41.9918 42.5 42C42.5 42.0183 42.4977 42.0365 42.4971 42.0547C42.4961 42.0805 42.4954 42.1062 42.4932 42.1318C42.4909 42.1578 42.487 42.1834 42.4834 42.209C42.4806 42.2286 42.4781 42.2481 42.4746 42.2676C42.4683 42.3026 42.4599 42.3369 42.4512 42.3711C42.4483 42.3822 42.4455 42.3933 42.4424 42.4043C42.4337 42.4353 42.4246 42.4659 42.4141 42.4961C42.4071 42.5161 42.3995 42.5359 42.3916 42.5557C42.3822 42.5792 42.3719 42.6021 42.3613 42.625C42.3522 42.645 42.3431 42.665 42.333 42.6846C42.3202 42.7095 42.3062 42.7337 42.292 42.7578C42.2817 42.7754 42.2718 42.7933 42.2607 42.8105C42.2484 42.8297 42.2358 42.8486 42.2227 42.8672C42.2054 42.8916 42.1868 42.915 42.168 42.9385C42.1562 42.9531 42.1441 42.9673 42.1318 42.9814C42.1136 43.0024 42.0947 43.0229 42.0752 43.043C42.0606 43.058 42.0455 43.0725 42.0303 43.0869C42.0093 43.1068 41.9882 43.1267 41.9658 43.1455C41.9437 43.1642 41.9207 43.1818 41.8975 43.1992C41.8871 43.207 41.8778 43.2161 41.8672 43.2236C41.8648 43.2253 41.8617 43.2259 41.8594 43.2275C41.7486 43.3052 41.627 43.3674 41.4971 43.4131C41.4836 43.4178 41.4706 43.4234 41.457 43.4277C41.418 43.4402 41.3783 43.4507 41.3379 43.46C41.332 43.4613 41.3262 43.4636 41.3203 43.4648C41.2901 43.4714 41.2594 43.4757 41.2285 43.4805C41.208 43.4836 41.1876 43.487 41.167 43.4893C41.1395 43.4923 41.1119 43.4936 41.084 43.4951C41.0638 43.4962 41.0437 43.4977 41.0234 43.498C41.0156 43.4982 41.0078 43.5 41 43.5H36C35.9813 43.5 35.9628 43.4977 35.9443 43.4971C35.9186 43.4961 35.8928 43.4955 35.8672 43.4932C35.8412 43.4909 35.8156 43.487 35.79 43.4834C35.7705 43.4806 35.7509 43.4781 35.7314 43.4746C35.6964 43.4683 35.6621 43.4599 35.6279 43.4512C35.6168 43.4483 35.6058 43.4455 35.5947 43.4424C35.5637 43.4337 35.5331 43.4247 35.5029 43.4141C35.4829 43.407 35.4631 43.3995 35.4434 43.3916C35.4199 43.3822 35.3969 43.3719 35.374 43.3613C35.354 43.3522 35.3341 43.3431 35.3145 43.333C35.2895 43.3202 35.2653 43.3062 35.2412 43.292C35.2236 43.2817 35.2057 43.2718 35.1885 43.2607C35.168 43.2475 35.1477 43.2339 35.1279 43.2197C35.1049 43.2033 35.0827 43.1858 35.0605 43.168C35.0449 43.1553 35.0298 43.1421 35.0146 43.1289C34.9948 43.1115 34.9751 43.0938 34.9561 43.0752C34.939 43.0587 34.9225 43.0417 34.9062 43.0244C34.8884 43.0053 34.8705 42.986 34.8535 42.9658C34.8348 42.9437 34.8172 42.9207 34.7998 42.8975C34.7922 42.8873 34.7838 42.8776 34.7764 42.8672L28.2705 33.6816L20.1289 42.9873C19.5835 43.6107 18.6362 43.6742 18.0127 43.1289C17.3893 42.5835 17.3258 41.6362 17.8711 41.0127L26.4873 31.165L17.7764 18.8672C17.7746 18.8647 17.7732 18.8619 17.7715 18.8594C17.6886 18.7411 17.6224 18.6106 17.5762 18.4707C17.5747 18.4661 17.5728 18.4616 17.5713 18.457C17.5477 18.3832 17.5305 18.3068 17.5186 18.2285C17.5154 18.208 17.5121 18.1876 17.5098 18.167C17.5053 18.1264 17.5031 18.0854 17.502 18.0439C17.5018 18.0371 17.5011 18.0303 17.501 18.0234C17.5009 18.0156 17.5 18.0078 17.5 18C17.5 17.9814 17.5013 17.9628 17.502 17.9443C17.5029 17.9186 17.5036 17.8928 17.5059 17.8672C17.5081 17.8412 17.512 17.8156 17.5156 17.79C17.5184 17.7705 17.5209 17.7509 17.5244 17.7314C17.5315 17.6924 17.5408 17.6541 17.5508 17.6162C17.5527 17.609 17.5546 17.6019 17.5566 17.5947C17.5653 17.5638 17.5744 17.5331 17.585 17.5029C17.592 17.4829 17.5996 17.4631 17.6074 17.4434C17.6168 17.4199 17.6272 17.3969 17.6377 17.374C17.6468 17.3541 17.656 17.3341 17.666 17.3145C17.6789 17.2895 17.6929 17.2653 17.707 17.2412C17.7173 17.2236 17.7272 17.2057 17.7383 17.1885C17.7515 17.168 17.7651 17.1477 17.7793 17.1279C17.7957 17.1049 17.8132 17.0827 17.8311 17.0605C17.8444 17.044 17.8591 17.0287 17.873 17.0127C17.8897 16.9937 17.9061 16.9743 17.9238 16.9561C17.9384 16.941 17.9535 16.9265 17.9688 16.9121C17.9897 16.8923 18.0109 16.8723 18.0332 16.8535C18.0553 16.8348 18.0783 16.8172 18.1016 16.7998C18.112 16.792 18.1222 16.7839 18.1328 16.7764C18.1351 16.7747 18.1374 16.7731 18.1396 16.7715C18.2503 16.6938 18.3721 16.6317 18.502 16.5859C18.5134 16.5819 18.5246 16.577 18.5361 16.5732L18.5537 16.5674C18.5921 16.5554 18.6313 16.546 18.6709 16.5371C18.6736 16.5365 18.676 16.5348 18.6787 16.5342C18.7089 16.5276 18.7397 16.5233 18.7705 16.5186C18.791 16.5154 18.8115 16.5121 18.832 16.5098C18.8595 16.5067 18.8872 16.5055 18.915 16.5039C18.9352 16.5028 18.9554 16.5013 18.9756 16.501C18.9837 16.5008 18.9918 16.5 19 16.5H24L24.1094 16.5039ZM30.3018 31.3604L36.7754 40.5H38.0996L31.0332 30.5234L30.3018 31.3604ZM21.9004 19.5L28.5186 28.8438L29.25 28.0068L23.2246 19.5H21.9004Z" fill="url(#paint0_linear_209_1314)"/>
<defs>
<linearGradient id="paint0_linear_209_1314" x1="30" y1="6" x2="30" y2="54" gradientUnits="userSpaceOnUse">
<stop stop-color="#00F2FF"/>
<stop offset="1" stop-color="#FF00FF"/>
</linearGradient>
</defs>
</svg>
