<svg width="75" height="54" viewBox="0 0 75 54" fill="none" xmlns="http://www.w3.org/2000/svg">
<path d="M14 9H24.5C26.8333 6.66667 30 2 37.5 2" stroke="#ECECEC" stroke-width="3" stroke-linecap="round"/>
<path d="M17.5 9V41M17.5 41H37.5M17.5 41H14" stroke="#ECECEC" stroke-width="3" stroke-linecap="round"/>
<path d="M29 5C29.7059 7 32.4941 11 38 11" stroke="#ECECEC" stroke-width="3" stroke-linecap="round"/>
<path d="M33.5 11C31.5 12.5 26.6 14.4 23 10" stroke="#ECECEC" stroke-width="3" stroke-linecap="round"/>
<path d="M18 28L22 28" stroke="#ECECEC" stroke-width="3" stroke-linecap="round"/>
<path d="M27 13C27 16.75 26 25 22 28" stroke="#ECECEC" stroke-width="3" stroke-linecap="round"/>
<path d="M23 29C24.5 30.8333 27.5 35.6 27.5 40" stroke="#ECECEC" stroke-width="3" stroke-linecap="round"/>
<path d="M61 9H50.5C48.1667 6.66667 45 2 37.5 2" stroke="#ECECEC" stroke-width="3" stroke-linecap="round"/>
<path d="M57.646 9V41M57.646 41H37.3251M57.646 41H61" stroke="#ECECEC" stroke-width="3" stroke-linecap="round"/>
<path d="M46 6C45.3725 7.66667 42.8941 11 38 11" stroke="#ECECEC" stroke-width="3" stroke-linecap="round"/>
<path d="M42.3125 11C44.2292 12.5 48.925 14.4 52.375 10" stroke="#ECECEC" stroke-width="3" stroke-linecap="round"/>
<path d="M57.1665 28L53.3332 28" stroke="#ECECEC" stroke-width="3" stroke-linecap="round"/>
<path d="M48.5418 13C48.5418 16.75 49.5002 25 53.3335 28" stroke="#ECECEC" stroke-width="3" stroke-linecap="round"/>
<path d="M52.375 29C50.9375 30.8333 48.0625 35.6 48.0625 40" stroke="#ECECEC" stroke-width="3" stroke-linecap="round"/>
<path d="M8 51L67 51" stroke="#ECECEC" stroke-width="3" stroke-linecap="round"/>
<path d="M9 50.4999C9 44 18.5 44 18.5 50.4999" stroke="#ECECEC" stroke-width="3" stroke-linecap="round"/>
<path d="M21 50.4999C21 44 30.5 44 30.5 50.4999" stroke="#ECECEC" stroke-width="3" stroke-linecap="round"/>
<path d="M33 50.4999C33 44 42.5 44 42.5 50.4999" stroke="#ECECEC" stroke-width="3" stroke-linecap="round"/>
<path d="M45 50.4999C45 44 54.5 44 54.5 50.4999" stroke="#ECECEC" stroke-width="3" stroke-linecap="round"/>
<path d="M57 50.4999C57 44 66.5 44 66.5 50.4999" stroke="#ECECEC" stroke-width="3" stroke-linecap="round"/>
</svg>
