<svg width="60" height="60" viewBox="0 0 60 60" fill="none" xmlns="http://www.w3.org/2000/svg">
<path d="M22.5 35L10 22.5L22.5 10" stroke="#ECECEC" stroke-width="3" stroke-linecap="round" stroke-linejoin="round"/>
<path d="M10 22.5H36.25C38.0557 22.5 39.8437 22.8557 41.5119 23.5467C43.1801 24.2377 44.6959 25.2505 45.9727 26.5273C47.2495 27.8041 48.2623 29.3199 48.9533 30.9881C49.6443 32.6563 50 34.4443 50 36.25C50 38.0557 49.6443 39.8437 48.9533 41.5119C48.2623 43.1801 47.2495 44.6959 45.9727 45.9727C44.6959 47.2495 43.1801 48.2623 41.5119 48.9533C39.8437 49.6443 38.0557 50 36.25 50H27.5" stroke="#ECECEC" stroke-width="3" stroke-linecap="round" stroke-linejoin="round"/>
</svg>
