<svg width="60" height="60" viewBox="0 0 60 60" fill="none" xmlns="http://www.w3.org/2000/svg">
<path d="M47.5 6C51.0899 6 54 8.91015 54 12.5V47.5C54 51.0899 51.0899 54 47.5 54H12.5C8.91015 54 6 51.0899 6 47.5V12.5C6 8.91015 8.91015 6 12.5 6H47.5ZM12.5 9C10.567 9 9 10.567 9 12.5V47.5C9 49.433 10.567 51 12.5 51H47.5C49.433 51 51 49.433 51 47.5V12.5C51 10.567 49.433 9 47.5 9H12.5ZM30 18C36.6274 18 42 23.3726 42 30C42 36.6274 36.6274 42 30 42C23.3726 42 18 36.6274 18 30C18 23.3726 23.3726 18 30 18ZM30 21C25.0294 21 21 25.0294 21 30C21 34.9706 25.0294 39 30 39C34.9706 39 39 34.9706 39 30C39 25.0294 34.9706 21 30 21ZM44.5 12.5C46.1569 12.5 47.5 13.8431 47.5 15.5C47.5 17.1569 46.1569 18.5 44.5 18.5C42.8431 18.5 41.5 17.1569 41.5 15.5C41.5 13.8431 42.8431 12.5 44.5 12.5Z" fill="url(#paint0_linear_209_1309)"/>
<defs>
<linearGradient id="paint0_linear_209_1309" x1="30" y1="6" x2="30" y2="54" gradientUnits="userSpaceOnUse">
<stop stop-color="#00F2FF"/>
<stop offset="1" stop-color="#FF00FF"/>
</linearGradient>
</defs>
</svg>
