<svg width="60" height="60" viewBox="0 0 60 60" fill="none" xmlns="http://www.w3.org/2000/svg">
<path d="M30.002 6.5C30.5027 6.5 30.9954 6.63711 31.4248 6.89844C31.8008 7.12725 32.1158 7.44446 32.3418 7.82324L32.4336 7.98926L32.4346 7.99023L37.7471 18.5391H37.7461C37.9854 19.0139 38.3407 19.4276 38.7832 19.7432C39.2259 20.0588 39.7428 20.2661 40.2891 20.3447H40.2881L52.1689 22.0488H52.168C52.602 22.1107 53.0153 22.276 53.3721 22.5312L53.5215 22.6465L53.6631 22.7715C53.9364 23.0313 54.1533 23.346 54.2979 23.6963L54.3643 23.875L54.417 24.0576C54.5262 24.4867 54.5275 24.9375 54.4189 25.3691C54.2949 25.862 54.0338 26.3073 53.6689 26.6562L53.668 26.6572L45.0762 34.8594C44.6853 35.2328 44.3954 35.6915 44.2285 36.1943C44.0618 36.6967 44.0219 37.2303 44.1123 37.75L46.1396 49.3311L46.167 49.5205C46.2144 49.9631 46.1497 50.4112 45.9795 50.8242C45.7851 51.2958 45.4612 51.7005 45.0488 51.9941C44.6368 52.2874 44.1516 52.4589 43.6494 52.4932C43.1496 52.5272 42.6491 52.4236 42.2031 52.1924V52.1934L31.583 46.7188C31.0966 46.4684 30.5535 46.3369 30.001 46.3369C29.4484 46.3369 28.9055 46.4693 28.4189 46.7197L28.418 46.7188L17.8018 52.1934L17.8008 52.1924C17.3543 52.4232 16.8535 52.5269 16.3535 52.4922C15.8519 52.4572 15.3674 52.2845 14.9561 51.9912C14.5445 51.6977 14.2215 51.2941 14.0273 50.8232C13.8331 50.3521 13.7763 49.8355 13.8662 49.333L15.8916 37.7529V37.752C15.9826 37.2318 15.9432 36.6972 15.7764 36.1943C15.6303 35.7542 15.3902 35.3478 15.0703 35.0029L14.9287 34.8594L6.3418 26.6631L6.34082 26.6641C5.97267 26.3155 5.7089 25.8687 5.58301 25.374C5.45708 24.8792 5.47541 24.3595 5.63574 23.875L5.70215 23.6963C5.87123 23.2858 6.13936 22.9243 6.48145 22.6426L6.63184 22.5273C6.98892 22.2728 7.40207 22.1081 7.83594 22.0469L19.7139 20.3447H19.7148C20.2615 20.2668 20.7785 20.0597 21.2217 19.7441C21.6648 19.4286 22.0203 19.0143 22.2598 18.5391L27.5703 7.99023V7.98926C27.7987 7.53693 28.1496 7.1599 28.5791 6.89844C29.0084 6.63714 29.5013 6.50002 30.002 6.5Z" stroke="#00F2FF" stroke-width="3" stroke-linecap="round" stroke-linejoin="round"/>
</svg>
