<svg width="75" height="54" viewBox="0 0 75 54" fill="none" xmlns="http://www.w3.org/2000/svg">
<path d="M6 26.5L6.15789 26.2722L6.31579 26.0445L6.47368 25.817L6.63158 25.5895L6.78947 25.3623L6.94737 25.1354L7.10526 24.9089L7.26316 24.6827L7.42105 24.4569L7.57895 24.2317L7.73684 24.007L7.89474 23.783L8.05263 23.5596L8.21053 23.3369L8.36842 23.115L8.52632 22.894L8.68421 22.6738L8.84211 22.4546L9 22.2364L9.15789 22.0193L9.31579 21.8032L9.47368 21.5883L9.63158 21.3746L9.78947 21.1622L9.94737 20.9511L10.1053 20.7414L10.2632 20.533L10.4211 20.3262L10.5789 20.1209L10.7368 19.9171L10.8947 19.715L11.0526 19.5146L11.2105 19.3158L11.3684 19.1189L11.5263 18.9238L11.6842 18.7305L11.8421 18.5392L12 18.3498L12.1579 18.1624L12.3158 17.9771L12.4737 17.7939L12.6316 17.6128L12.7895 17.434L12.9474 17.2574L13.1053 17.083L13.2632 16.911L13.4211 16.7413L13.5789 16.5741L13.7368 16.4093L13.8947 16.247L14.0526 16.0872L14.2105 15.93L14.3684 15.7753L14.5263 15.6234L14.6842 15.4741L14.8421 15.3276L15 15.1838L15.1579 15.0428L15.3158 14.9046L15.4737 14.7693L15.6316 14.6368L15.7895 14.5073L15.9474 14.3808L16.1053 14.2572L16.2632 14.1367L16.4211 14.0192L16.5789 13.9048L16.7368 13.7936L16.8947 13.6854L17.0526 13.5804L17.2105 13.4786L17.3684 13.38L17.5263 13.2847L17.6842 13.1926L17.8421 13.1037L18 13.0182L18.1579 12.9361L18.3158 12.8572L18.4737 12.7818L18.6316 12.7097L18.7895 12.641L18.9474 12.5757L19.1053 12.5139L19.2632 12.4555L19.4211 12.4006L19.5789 12.3492L19.7368 12.3013L19.8947 12.2568L20.0526 12.2159L20.2105 12.1785L20.3684 12.1447L20.5263 12.1143L20.6842 12.0876L20.8421 12.0644L21 12.0447L21.1579 12.0286L21.3158 12.0161L21.4737 12.0072L21.6316 12.0018L21.7895 12L21.9474 12.0018L22.1053 12.0072L22.2632 12.0161L22.4211 12.0286L22.5789 12.0447L22.7368 12.0644L22.8947 12.0876L23.0526 12.1143L23.2105 12.1447L23.3684 12.1785L23.5263 12.2159L23.6842 12.2568L23.8421 12.3013L24 12.3492L24.1579 12.4006L24.3158 12.4555L24.4737 12.5139L24.6316 12.5757L24.7895 12.641L24.9474 12.7097L25.1053 12.7818L25.2632 12.8572L25.4211 12.9361L25.5789 13.0182L25.7368 13.1037L25.8947 13.1926L26.0526 13.2847L26.2105 13.38L26.3684 13.4786L26.5263 13.5804L26.6842 13.6854L26.8421 13.7936L27 13.9048L27.1579 14.0192L27.3158 14.1367L27.4737 14.2572L27.6316 14.3808L27.7895 14.5073L27.9474 14.6368L28.1053 14.7693L28.2632 14.9046L28.4211 15.0428L28.5789 15.1838L28.7368 15.3276L28.8947 15.4741L29.0526 15.6234L29.2105 15.7753L29.3684 15.93L29.5263 16.0872L29.6842 16.247L29.8421 16.4093L30 16.5741L30.1579 16.7413L30.3158 16.911L30.4737 17.083L30.6316 17.2574L30.7895 17.434L30.9474 17.6128L31.1053 17.7939L31.2632 17.9771L31.4211 18.1624L31.5789 18.3498L31.7368 18.5392L31.8947 18.7305L32.0526 18.9238L32.2105 19.1189L32.3684 19.3158L32.5263 19.5146L32.6842 19.715L32.8421 19.9171L33 20.1209L33.1579 20.3262L33.3158 20.533L33.4737 20.7414L33.6316 20.9511L33.7895 21.1622L33.9474 21.3746L34.1053 21.5883L34.2632 21.8032L34.4211 22.0193L34.5789 22.2364L34.7368 22.4546L34.8947 22.6738L35.0526 22.894L35.2105 23.115L35.3684 23.3369L35.5263 23.5596L35.6842 23.783L35.8421 24.007L36 24.2317L36.1579 24.4569L36.3158 24.6827L36.4737 24.9089L36.6316 25.1354L36.7895 25.3623L36.9474 25.5895L37.1053 25.817L37.2632 26.0445L37.4211 26.2722L37.5789 26.5L37.7368 26.7278L37.8947 26.9555L38.0526 27.183L38.2105 27.4105L38.3684 27.6377L38.5263 27.8646L38.6842 28.0911L38.8421 28.3173L39 28.5431L39.1579 28.7683L39.3158 28.993L39.4737 29.217L39.6316 29.4404L39.7895 29.6631L39.9474 29.885L40.1053 30.106L40.2632 30.3262L40.4211 30.5454L40.5789 30.7636L40.7368 30.9807L40.8947 31.1968L41.0526 31.4117L41.2105 31.6254L41.3684 31.8378L41.5263 32.0489L41.6842 32.2586L41.8421 32.467L42 32.6738L42.1579 32.8791L42.3158 33.0829L42.4737 33.285L42.6316 33.4854L42.7895 33.6841L42.9474 33.8811L43.1053 34.0762L43.2632 34.2695L43.4211 34.4608L43.5789 34.6502L43.7368 34.8376L43.8947 35.0229L44.0526 35.2061L44.2105 35.3872L44.3684 35.566L44.5263 35.7426L44.6842 35.917L44.8421 36.089L45 36.2587L45.1579 36.4259L45.3158 36.5907L45.4737 36.753L45.6316 36.9128L45.7895 37.07L45.9474 37.2247L46.1053 37.3766L46.2632 37.5259L46.4211 37.6724L46.5789 37.8162L46.7368 37.9572L46.8947 38.0954L47.0526 38.2307L47.2105 38.3632L47.3684 38.4927L47.5263 38.6192L47.6842 38.7428L47.8421 38.8633L48 38.9808L48.1579 39.0952L48.3158 39.2064L48.4737 39.3146L48.6316 39.4196L48.7895 39.5214L48.9474 39.62L49.1053 39.7153L49.2632 39.8074L49.4211 39.8963L49.5789 39.9818L49.7368 40.0639L49.8947 40.1428L50.0526 40.2182L50.2105 40.2903L50.3684 40.359L50.5263 40.4243L50.6842 40.4861L50.8421 40.5445L51 40.5994L51.1579 40.6508L51.3158 40.6987L51.4737 40.7432L51.6316 40.7841L51.7895 40.8215L51.9474 40.8553L52.1053 40.8857L52.2632 40.9124L52.4211 40.9357L52.5789 40.9553L52.7368 40.9714L52.8947 40.9839L53.0526 40.9928L53.2105 40.9982L53.3684 41L53.5263 40.9982L53.6842 40.9928L53.8421 40.9839L54 40.9714L54.1579 40.9553L54.3158 40.9357L54.4737 40.9124L54.6316 40.8857L54.7895 40.8553L54.9474 40.8215L55.1053 40.7841L55.2632 40.7432L55.4211 40.6987L55.5789 40.6508L55.7368 40.5994L55.8947 40.5445L56.0526 40.4861L56.2105 40.4243L56.3684 40.359L56.5263 40.2903L56.6842 40.2182L56.8421 40.1428L57 40.0639L57.1579 39.9818L57.3158 39.8963L57.4737 39.8074L57.6316 39.7153L57.7895 39.62L57.9474 39.5214L58.1053 39.4196L58.2632 39.3146L58.4211 39.2064L58.5789 39.0952L58.7368 38.9808L58.8947 38.8633L59.0526 38.7428L59.2105 38.6192L59.3684 38.4927L59.5263 38.3632L59.6842 38.2307L59.8421 38.0954L60 37.9572L60.1579 37.8162L60.3158 37.6724L60.4737 37.5259L60.6316 37.3766L60.7895 37.2247L60.9474 37.07L61.1053 36.9128L61.2632 36.753L61.4211 36.5907L61.5789 36.4259L61.7368 36.2587L61.8947 36.089L62.0526 35.917L62.2105 35.7426L62.3684 35.566L62.5263 35.3872L62.6842 35.2061L62.8421 35.0229L63 34.8376L63.1579 34.6502L63.3158 34.4608L63.4737 34.2695L63.6316 34.0762L63.7895 33.8811L63.9474 33.6841L64.1053 33.4854L64.2632 33.285L64.4211 33.0829L64.5789 32.8791L64.7368 32.6738L64.8947 32.467L65.0526 32.2586L65.2105 32.0489L65.3684 31.8378L65.5263 31.6254L65.6842 31.4117L65.8421 31.1968L66 30.9807L66.1579 30.7636L66.3158 30.5454L66.4737 30.3262L66.6316 30.106L66.7895 29.885L66.9474 29.6631L67.1053 29.4404L67.2632 29.217L67.4211 28.993L67.5789 28.7683L67.7368 28.5431L67.8947 28.3173L68.0526 28.0911L68.2105 27.8646L68.3684 27.6377L68.5263 27.4105L68.6842 27.183L68.8421 26.9555L69 26.7278" stroke="#4D4DFF" stroke-width="3" stroke-miterlimit="10" stroke-linecap="round" stroke-linejoin="round"/>
</svg>
