<svg width="60" height="60" viewBox="0 0 60 60" fill="none" xmlns="http://www.w3.org/2000/svg">
<path d="M21.7539 10.5V10.501C22.4361 10.4994 23.094 10.6619 23.6934 10.9717L23.9473 11.1143L24.1914 11.2734C24.7478 11.6626 25.2067 12.1771 25.5352 12.7734V12.7744C25.9101 13.4554 26.1056 14.2232 26.1055 15.001V44.999C26.1055 45.0151 26.105 45.0317 26.1045 45.0479L26.0977 45.2451C26.0972 45.2601 26.0966 45.2751 26.0957 45.29C26.0534 45.9668 25.8637 46.63 25.5352 47.2266C25.1598 47.9081 24.6144 48.4831 23.9473 48.8857C23.281 49.2878 22.5192 49.5009 21.7402 49.499V49.5H16.8652V49.499C16.1838 49.5007 15.5157 49.3384 14.9131 49.0283L14.6582 48.8857C13.9911 48.4831 13.4457 47.908 13.0703 47.2266C12.7418 46.63 12.552 45.9668 12.5098 45.29C12.5088 45.2751 12.5073 45.2601 12.5068 45.2451L12.501 45.0479C12.5005 45.0317 12.5 45.0151 12.5 44.999V15.001L12.5088 14.71C12.5511 14.0326 12.7422 13.3703 13.0703 12.7744C13.4457 12.0927 13.9909 11.517 14.6582 11.1143L14.9131 10.9717C15.5157 10.6616 16.1838 10.4993 16.8652 10.501V10.5H21.7539Z" fill="url(#paint0_linear_207_1162)" stroke="#ECECEC" stroke-width="3" stroke-linecap="round" stroke-linejoin="round"/>
<path d="M42.1484 10.5V10.501C42.8306 10.4994 43.4885 10.6619 44.0879 10.9717L44.3418 11.1143L44.5859 11.2734C45.1424 11.6626 45.6012 12.1771 45.9297 12.7734V12.7744C46.3046 13.4554 46.5002 14.2232 46.5 15.001V44.999C46.5 45.0151 46.4995 45.0317 46.499 45.0479L46.4922 45.2451C46.4917 45.2601 46.4912 45.2751 46.4902 45.29C46.448 45.9668 46.2582 46.63 45.9297 47.2266C45.5543 47.9081 45.0089 48.4831 44.3418 48.8857C43.6755 49.2878 42.9138 49.5009 42.1348 49.499V49.5H37.2598V49.499C36.5783 49.5007 35.9102 49.3384 35.3076 49.0283L35.0527 48.8857C34.3856 48.4831 33.8402 47.908 33.4648 47.2266C33.1363 46.63 32.9466 45.9668 32.9043 45.29C32.9034 45.2751 32.9019 45.2601 32.9014 45.2451L32.8955 45.0479C32.895 45.0317 32.8945 45.0151 32.8945 44.999V15.001L32.9033 14.71C32.9457 14.0326 33.1367 13.3703 33.4648 12.7744C33.8402 12.0927 34.3855 11.517 35.0527 11.1143L35.3076 10.9717C35.9102 10.6616 36.5783 10.4993 37.2598 10.501V10.5H42.1484Z" fill="url(#paint1_linear_207_1162)" stroke="#ECECEC" stroke-width="3" stroke-linecap="round" stroke-linejoin="round"/>
<defs>
<linearGradient id="paint0_linear_207_1162" x1="19.3026" y1="12" x2="19.3026" y2="48" gradientUnits="userSpaceOnUse">
<stop stop-color="#00F2FF"/>
<stop offset="1" stop-color="#4D4DFF"/>
</linearGradient>
<linearGradient id="paint1_linear_207_1162" x1="39.6972" y1="12" x2="39.6972" y2="48" gradientUnits="userSpaceOnUse">
<stop stop-color="#00F2FF"/>
<stop offset="1" stop-color="#4D4DFF"/>
</linearGradient>
</defs>
</svg>
