<svg width="60" height="60" viewBox="0 0 60 60" fill="none" xmlns="http://www.w3.org/2000/svg">
<path d="M10 12.0015C9.99974 11.1217 10.2316 10.2574 10.6722 9.49596C11.1128 8.73447 11.7465 8.10271 12.5094 7.66447C13.2722 7.22624 14.1372 6.99704 15.017 7.00003C15.8967 7.00302 16.7601 7.23808 17.52 7.68148L47.5125 25.1765C48.2694 25.6157 48.8978 26.2458 49.3349 27.004C49.7719 27.7621 50.0023 28.6217 50.0031 29.4968C50.0038 30.3719 49.7749 31.2319 49.3392 31.9908C48.9034 32.7497 48.2761 33.381 47.52 33.8215L17.52 51.3215C16.7601 51.7649 15.8967 52 15.017 52.0029C14.1372 52.0059 13.2722 51.7767 12.5094 51.3385C11.7465 50.9003 11.1128 50.2685 10.6722 49.507C10.2316 48.7455 9.99974 47.8813 10 47.0015V12.0015Z" fill="url(#paint0_linear_207_1154)" fill-opacity="0.93" stroke="#ECECEC" stroke-width="3" stroke-linecap="round" stroke-linejoin="round"/>
<defs>
<linearGradient id="paint0_linear_207_1154" x1="30.0015" y1="7" x2="30.0015" y2="52.003" gradientUnits="userSpaceOnUse">
<stop stop-color="#00F2FF"/>
<stop offset="1" stop-color="#4D4DFF"/>
</linearGradient>
</defs>
</svg>
