<svg width="60" height="60" viewBox="0 0 60 60" fill="none" xmlns="http://www.w3.org/2000/svg">
<path d="M27.5 11.7551C27.4995 11.4069 27.3959 11.0666 27.2022 10.7772C27.0085 10.4878 26.7334 10.2623 26.4116 10.1291C26.0899 9.99595 25.7359 9.96105 25.3944 10.0288C25.0528 10.0966 24.739 10.2641 24.4925 10.5101L16.0325 18.9676C15.706 19.296 15.3176 19.5564 14.8897 19.7336C14.4619 19.9109 14.0031 20.0014 13.54 20.0001H7.5C6.83696 20.0001 6.20107 20.2635 5.73223 20.7323C5.26339 21.2011 5 21.837 5 22.5001V37.5001C5 38.1631 5.26339 38.799 5.73223 39.2678C6.20107 39.7367 6.83696 40.0001 7.5 40.0001H13.54C14.0031 39.9987 14.4619 40.0893 14.8897 40.2665C15.3176 40.4438 15.706 40.7041 16.0325 41.0326L24.49 49.4926C24.7365 49.7396 25.0508 49.9078 25.393 49.976C25.7352 50.0442 26.09 50.0093 26.4123 49.8757C26.7347 49.7421 27.0101 49.5158 27.2037 49.2255C27.3974 48.9353 27.5005 48.594 27.5 48.2451V11.7551Z" fill="url(#paint0_linear_207_1093)" stroke="#ECECEC" stroke-width="3" stroke-linecap="round" stroke-linejoin="round"/>
<path d="M40 22.5C41.6228 24.6637 42.5 27.2954 42.5 30C42.5 32.7046 41.6228 35.3363 40 37.5" stroke="#ECECEC" stroke-width="3" stroke-linecap="round" stroke-linejoin="round"/>
<path d="M48.4102 45.9098C50.4995 43.8205 52.1569 41.3401 53.2876 38.6103C54.4184 35.8804 55.0004 32.9546 55.0004 29.9998C55.0004 27.0451 54.4184 24.1192 53.2876 21.3894C52.1569 18.6596 50.4995 16.1792 48.4102 14.0898" stroke="#ECECEC" stroke-width="3" stroke-linecap="round" stroke-linejoin="round"/>
<defs>
<linearGradient id="paint0_linear_207_1093" x1="16.25" y1="9.99512" x2="16.25" y2="50.01" gradientUnits="userSpaceOnUse">
<stop stop-color="#00F2FF"/>
<stop offset="1" stop-color="#4D4DFF"/>
</linearGradient>
</defs>
</svg>
