<svg width="60" height="60" viewBox="0 0 60 60" fill="none" xmlns="http://www.w3.org/2000/svg">
<path d="M28 25L34 31" stroke="#ECECEC" stroke-width="3" stroke-linecap="round" stroke-linejoin="round"/>
<path d="M16.2501 52.5C17.9807 52.5 19.6724 51.9868 21.1113 51.0254C22.5502 50.0639 23.6718 48.6973 24.334 47.0985C24.9963 45.4996 25.1696 43.7403 24.832 42.043C24.4943 40.3456 23.661 38.7865 22.4373 37.5628C21.2136 36.3391 19.6545 35.5058 17.9571 35.1681C16.2598 34.8305 14.5005 35.0038 12.9016 35.6661C11.3027 36.3283 9.93618 37.4498 8.97472 38.8888C8.01326 40.3277 7.50008 42.0194 7.50008 43.75C7.50054 45.414 6.86771 47.0157 5.73008 48.23C5.37955 48.5797 5.14072 49.0255 5.04389 49.5111C4.94705 49.9966 4.99657 50.5 5.18616 50.9573C5.37575 51.4147 5.69687 51.8055 6.10881 52.0801C6.52076 52.3547 7.00498 52.5009 7.50008 52.5H16.2501Z" stroke="#ECECEC" stroke-width="3" stroke-linecap="round" stroke-linejoin="round"/>
<path d="M25 41L50.5524 16.4381C51.4793 15.5111 52 14.2539 52 12.9429C52 11.632 51.4793 10.3747 50.5524 9.44775C49.6256 8.52077 48.3685 8 47.0577 8C45.747 8 44.4899 8.52077 43.563 9.44775L17.5 34.5" stroke="#ECECEC" stroke-width="3" stroke-linecap="round" stroke-linejoin="round"/>
</svg>
