<svg width="75" height="54" viewBox="0 0 75 54" fill="none" xmlns="http://www.w3.org/2000/svg">
<g clip-path="url(#clip0_139_511)">
<path d="M19.6846 32.4492C20.2642 31.8573 20.2543 30.9076 19.6624 30.328C19.0706 29.7483 18.1209 29.7582 17.5412 30.3501L18.6129 31.3996L19.6846 32.4492ZM10.3865 35.1327L10.5764 36.6206L10.3865 35.1327ZM4.4457 40.7323L3.40715 39.6499V39.6499L4.4457 40.7323ZM6.02347 47.3509C6.84398 47.2366 7.41652 46.4789 7.30228 45.6584C7.18803 44.8378 6.43026 44.2653 5.60975 44.3796L5.81661 45.8652L6.02347 47.3509ZM58.7119 19.7519C57.9053 19.9408 57.4046 20.7479 57.5936 21.5545C57.7825 22.3611 58.5896 22.8618 59.3962 22.6728L59.0541 21.2124L58.7119 19.7519ZM59.4166 22.668C60.2232 22.4791 60.7239 21.672 60.535 20.8654C60.346 20.0588 59.539 19.5581 58.7324 19.7471L59.0745 21.2076L59.4166 22.668ZM48.4284 6.63393L47.2735 7.59108C47.2969 7.61934 47.3214 7.64674 47.3468 7.6732L48.4284 6.63393ZM45.6091 5.15526L45.4912 6.65062L45.6091 5.15526ZM42.6063 6.17499L41.6093 5.0542V5.0542L42.6063 6.17499ZM41.179 9.09577L39.683 8.9859L41.179 9.09577ZM42.1633 12.2067L41.0083 13.1638C41.072 13.2407 41.1433 13.311 41.221 13.3737L42.1633 12.2067ZM57.5406 16.1174L56.459 17.1567C56.7418 17.451 57.1324 17.6174 57.5406 17.6174V16.1174ZM59.0168 32.0271L60.2978 32.8076V32.8076L59.0168 32.0271ZM56.5294 38.07C56.706 38.8793 57.5054 39.3923 58.3147 39.2157C59.1241 39.0391 59.6371 38.2397 59.4604 37.4304L57.9949 37.7502L56.5294 38.07ZM62.9276 29.165L63.2697 30.6255L63.2697 30.6255L62.9276 29.165ZM64.9616 28.6886L64.6196 27.2281V27.2281L64.9616 28.6886ZM62.5343 17.5283L61.8445 18.8602V18.8602L62.5343 17.5283ZM68.11 23.5214L69.5755 23.2016C69.539 23.0342 69.4741 22.8743 69.3835 22.7289L68.11 23.5214ZM58.85 16.5599C59.0501 17.3638 59.864 17.8532 60.6679 17.6531C61.4718 17.4529 61.9613 16.639 61.7611 15.8351L60.3055 16.1975L58.85 16.5599ZM57.6907 5.6951L59.1463 5.33271L57.6907 5.6951ZM55.6934 2.73967L54.847 3.97806V3.97806L55.6934 2.73967ZM52.5003 2.14764L52.1131 0.698486L52.5003 2.14764ZM49.982 4.26582L51.3205 4.94296V4.94296L49.982 4.26582ZM48.1581 8.21579C48.3583 9.01968 49.1722 9.50911 49.9761 9.30896C50.78 9.10882 51.2694 8.29489 51.0693 7.491L49.6137 7.8534L48.1581 8.21579ZM30.1627 41.1133L30.9751 42.3743H30.9751L30.1627 41.1133ZM39.6348 41.1989L39.1209 42.6081L39.6348 41.1989ZM60.0611 46.3318L60.727 44.9877L60.7085 44.9785L60.6897 44.9699L60.0611 46.3318ZM57.458 36.9992L56.1515 37.7362V37.7362L57.458 36.9992ZM53.188 31.7965C52.3764 31.6307 51.584 32.1543 51.4183 32.966C51.2525 33.7777 51.7761 34.57 52.5878 34.7358L52.8879 33.2661L53.188 31.7965ZM22.7259 44.4653L22.9906 45.9418V45.9418L22.7259 44.4653ZM29.9297 41.3069L28.88 40.2353L28.88 40.2353L29.9297 41.3069ZM32.78 21.1337L33.0128 19.6519L32.9577 19.6432L32.9022 19.6387L32.78 21.1337ZM23.3396 22.6824C23.5464 23.4846 24.3644 23.9673 25.1666 23.7605C25.9688 23.5537 26.4514 22.7357 26.2446 21.9335L24.7921 22.308L23.3396 22.6824ZM21.3821 17.0841L21.8809 15.6694L21.3821 17.0841ZM14.3147 24.5194L15.6383 23.8137V23.8137L14.3147 24.5194ZM19.4939 29.1577C20.2967 29.3623 21.1133 28.8773 21.3179 28.0745C21.5224 27.2718 21.0374 26.4552 20.2347 26.2506L19.8643 27.7042L19.4939 29.1577ZM59.9683 32.2901C59.4292 31.661 58.4823 31.5881 57.8532 32.1272C57.2242 32.6662 57.1512 33.6132 57.6903 34.2422L58.8293 33.2661L59.9683 32.2901ZM65.5451 37.4658L65.9652 36.0259V36.0259L65.5451 37.4658ZM70.5722 38.8657L71.0555 37.4457V37.4457L70.5722 38.8657ZM18.6129 31.3996L17.5412 30.3501C17.2548 30.6425 16.8089 31.2224 15.735 31.8842C14.6609 32.5461 12.9246 33.2966 10.1966 33.6447L10.3865 35.1327L10.5764 36.6206C13.698 36.2222 15.8464 35.3394 17.3089 34.4381C18.7715 33.5367 19.5139 32.6234 19.6846 32.4492L18.6129 31.3996ZM10.3865 35.1327L10.1966 33.6447C8.00481 33.9245 6.73051 35.175 5.79926 36.4243C5.37358 36.9954 4.93027 37.6956 4.58118 38.204C4.19727 38.7631 3.82978 39.2444 3.40715 39.6499L4.4457 40.7323L5.48424 41.8146C6.12673 41.1981 6.63005 40.52 7.05432 39.9021C7.51342 39.2335 7.81565 38.739 8.20454 38.2172C8.90245 37.281 9.53343 36.7537 10.5764 36.6206L10.3865 35.1327ZM4.4457 40.7323L3.40715 39.6499C2.67843 40.3492 1.99784 41.1265 1.48487 41.9077C0.999435 42.647 0.542406 43.5711 0.522184 44.5259C0.511312 45.0392 0.627356 45.5942 0.964677 46.098C1.30053 46.5997 1.77858 46.9355 2.29678 47.1452C3.27082 47.5395 4.54727 47.5564 6.02347 47.3509L5.81661 45.8652L5.60975 44.3796C4.28278 44.5643 3.65064 44.4568 3.42248 44.3644C3.33958 44.3309 3.39313 44.3328 3.45757 44.429C3.52347 44.5275 3.52117 44.6055 3.52151 44.5894C3.52371 44.4855 3.60733 44.141 3.99256 43.5544C4.35027 43.0096 4.8704 42.4036 5.48424 41.8146L4.4457 40.7323ZM59.0541 21.2124L59.3962 22.6728L59.4166 22.668L59.0745 21.2076L58.7324 19.7471L58.7119 19.7519L59.0541 21.2124ZM47.1607 5.6041L46.464 6.93248C46.7696 7.09274 47.0452 7.31566 47.2735 7.59108L48.4284 6.63393L49.5833 5.67677C49.1052 5.09984 48.5193 4.62288 47.8574 4.27572L47.1607 5.6041ZM45.6091 5.15526L45.4912 6.65062C45.8281 6.67717 46.1586 6.7723 46.464 6.93248L47.1607 5.6041L47.8574 4.27572C47.1953 3.92848 46.4714 3.71857 45.727 3.65989L45.6091 5.15526ZM42.6063 6.17499L43.6032 7.29577C44.1341 6.82351 44.8134 6.59719 45.4912 6.65062L45.6091 5.15526L45.727 3.65989C44.2211 3.54119 42.74 4.04848 41.6093 5.0542L42.6063 6.17499ZM41.179 9.09577L42.6749 9.20565C42.7301 8.45483 43.0703 7.76976 43.6032 7.29577L42.6063 6.17499L41.6093 5.0542C40.4806 6.05819 39.794 7.4744 39.683 8.9859L41.179 9.09577ZM41.3725 10.7526L42.8026 10.3001C42.6913 9.94853 42.6477 9.57641 42.6749 9.20565L41.179 9.09577L39.683 8.9859C39.6279 9.73533 39.7158 10.4892 39.9423 11.2051L41.3725 10.7526ZM42.1633 12.2067L43.3182 11.2495C43.0898 10.974 42.9138 10.6517 42.8026 10.3001L41.3725 10.7526L39.9423 11.2051C40.1689 11.9211 40.5303 12.587 41.0083 13.1638L42.1633 12.2067ZM51.6394 19.8796L52.5978 18.7257C52.1138 18.3237 49.733 16.396 47.4889 14.5815C46.3634 13.6714 45.2676 12.7859 44.4532 12.128C44.046 11.799 43.7091 11.5269 43.474 11.3371C43.3564 11.2422 43.2643 11.1678 43.2016 11.1172C43.1703 11.0918 43.1463 11.0724 43.1301 11.0594C43.122 11.0529 43.1159 11.0479 43.1118 11.0446C43.1097 11.0429 43.1082 11.0417 43.1071 11.0408C43.1066 11.0404 43.1062 11.0401 43.106 11.0399C43.1058 11.0398 43.1057 11.0397 43.1057 11.0397C43.1056 11.0396 43.1056 11.0396 42.1633 12.2067C41.221 13.3737 41.221 13.3738 41.2211 13.3738C41.2211 13.3739 41.2212 13.374 41.2214 13.3741C41.2216 13.3743 41.222 13.3746 41.2225 13.375C41.2235 13.3758 41.2251 13.3771 41.2271 13.3787C41.2312 13.382 41.2374 13.387 41.2454 13.3935C41.2616 13.4065 41.2856 13.4259 41.3169 13.4512C41.3796 13.5018 41.4716 13.5762 41.5891 13.671C41.8241 13.8608 42.1609 14.1328 42.568 14.4617C43.3822 15.1194 44.4776 16.0045 45.6026 16.9142C47.8596 18.7393 50.2169 20.648 50.681 21.0335L51.6394 19.8796ZM57.5406 16.1174L58.6222 15.0781L49.51 5.59465L48.4284 6.63393L47.3468 7.6732L56.459 17.1567L57.5406 16.1174ZM59.0168 32.0271L57.7359 31.2466C57.1708 32.1741 56.7739 33.3734 56.5611 34.5346C56.3491 35.6917 56.29 36.9728 56.5294 38.07L57.9949 37.7502L59.4604 37.4304C59.334 36.8509 59.343 35.9973 59.512 35.0754C59.6802 34.1576 59.9772 33.3337 60.2978 32.8076L59.0168 32.0271ZM62.9276 29.165L62.5856 27.7045C60.5653 28.1777 58.8251 29.459 57.7359 31.2466L59.0168 32.0271L60.2978 32.8076C60.9799 31.6881 62.0532 30.9104 63.2697 30.6255L62.9276 29.165ZM64.9616 28.6886L64.6196 27.2281L62.5855 27.7045L62.9276 29.165L63.2697 30.6255L65.3037 30.1491L64.9616 28.6886ZM67.5688 26.7805L66.2878 26C65.901 26.635 65.2966 27.0696 64.6196 27.2281L64.9616 28.6886L65.3037 30.1491C66.7845 29.8023 68.0558 28.8641 68.8498 27.561L67.5688 26.7805ZM57.5406 16.1174C57.5406 17.6174 57.5402 17.6174 57.5397 17.6174C57.5396 17.6174 57.5392 17.6174 57.5389 17.6174C57.5384 17.6174 57.5378 17.6174 57.5374 17.6174C57.5364 17.6174 57.5356 17.6174 57.5349 17.6174C57.5336 17.6174 57.5328 17.6174 57.5325 17.6174C57.5319 17.6173 57.5334 17.6174 57.5369 17.6174C57.544 17.6176 57.5592 17.6179 57.5822 17.6189C57.6281 17.6208 57.7048 17.6249 57.8088 17.6339C58.017 17.6518 58.3331 17.6891 58.73 17.7662C59.5252 17.9207 60.6327 18.2326 61.8445 18.8602L62.5343 17.5283L63.2242 16.1963C61.712 15.4131 60.3226 15.0195 59.302 14.8213C58.7909 14.722 58.3693 14.6711 58.0668 14.645C57.9155 14.6319 57.7936 14.625 57.7048 14.6214C57.6603 14.6196 57.6241 14.6186 57.5966 14.618C57.5829 14.6178 57.5713 14.6176 57.562 14.6175C57.5573 14.6175 57.5532 14.6174 57.5496 14.6174C57.5478 14.6174 57.5462 14.6174 57.5447 14.6174C57.5439 14.6174 57.5432 14.6174 57.5425 14.6174C57.5422 14.6174 57.5417 14.6174 57.5416 14.6174C57.5411 14.6174 57.5406 14.6174 57.5406 16.1174ZM68.11 23.5214L66.6445 23.8412C66.8069 24.5855 66.6758 25.3634 66.2878 26L67.5688 26.7805L68.8498 27.561C69.6427 26.2596 69.9009 24.6927 69.5755 23.2016L68.11 23.5214ZM62.5343 17.5283L61.8445 18.8602C62.9015 19.4077 64.1277 20.68 65.1706 21.9887C65.6697 22.615 66.0898 23.2018 66.3851 23.6321C66.5323 23.8466 66.6474 24.0208 66.7248 24.1397C66.7634 24.1991 66.7925 24.2445 66.8114 24.2742C66.8208 24.2891 66.8277 24.3 66.8319 24.3067C66.834 24.31 66.8355 24.3123 66.8362 24.3135C66.8366 24.3142 66.8368 24.3145 66.8369 24.3146C66.8369 24.3146 66.8369 24.3146 66.8368 24.3145C66.8368 24.3144 66.8367 24.3143 66.8367 24.3143C66.8366 24.3141 66.8365 24.3139 68.11 23.5214C69.3835 22.7289 69.3834 22.7287 69.3833 22.7284C69.3832 22.7284 69.3831 22.7281 69.3829 22.7279C69.3827 22.7275 69.3824 22.7271 69.3821 22.7266C69.3815 22.7255 69.3806 22.7242 69.3796 22.7226C69.3776 22.7194 69.3749 22.7151 69.3716 22.7098C69.3648 22.699 69.3554 22.684 69.3432 22.665C69.319 22.6268 69.2842 22.5725 69.2395 22.5038C69.1503 22.3666 69.0214 22.1718 68.8587 21.9347C68.5341 21.4617 68.0711 20.8148 67.5168 20.1191C66.4528 18.784 64.8912 17.0597 63.2242 16.1963L62.5343 17.5283ZM60.3055 16.1975L61.7611 15.8351L59.1463 5.33271L57.6907 5.6951L56.2352 6.0575L58.85 16.5599L60.3055 16.1975ZM57.6907 5.6951L59.1463 5.33271C58.759 3.77699 57.8398 2.38982 56.5398 1.50128L55.6934 2.73967L54.847 3.97806C55.4937 4.42008 56.0115 5.15911 56.2352 6.0575L57.6907 5.6951ZM55.6934 2.73967L56.5398 1.50128C55.2316 0.607162 53.636 0.291545 52.1131 0.698486L52.5003 2.14764L52.8876 3.5968C53.5068 3.43132 54.2084 3.54162 54.847 3.97806L55.6934 2.73967ZM52.5003 2.14764L52.1131 0.698486C50.5931 1.10465 49.36 2.17261 48.6436 3.58867L49.982 4.26582L51.3205 4.94296C51.6868 4.21894 52.2654 3.76305 52.8876 3.5968L52.5003 2.14764ZM49.982 4.26582L48.6436 3.58867C47.9303 4.99847 47.7708 6.6601 48.1581 8.21579L49.6137 7.8534L51.0693 7.491C50.8456 6.59259 50.951 5.67323 51.3205 4.94296L49.982 4.26582ZM30.1627 41.1133L30.9751 42.3743C31.6918 41.9125 34.5316 40.9345 39.1209 42.6081L39.6348 41.1989L40.1487 39.7896C34.8716 37.8653 31.0149 38.7799 29.3503 39.8524L30.1627 41.1133ZM39.6348 41.1989L39.1209 42.6081C42.483 43.8342 45.2705 44.2104 47.3588 44.2731C48.4011 44.3044 49.2595 44.2573 49.9131 44.203C50.2353 44.1762 50.5137 44.1471 50.7163 44.1271C50.8212 44.1167 50.9014 44.1092 50.9657 44.1043C50.997 44.1019 51.0206 44.1004 51.0379 44.0996C51.0556 44.0987 51.062 44.0988 51.0599 44.0988V42.5988V41.0988C50.8571 41.0988 50.6139 41.1226 50.4217 41.1416C50.1994 41.1635 49.9566 41.189 49.6646 41.2133C49.09 41.2611 48.3489 41.3015 47.4489 41.2744C45.6527 41.2205 43.1846 40.8967 40.1487 39.7896L39.6348 41.1989ZM51.0599 42.5988V44.0988C50.922 44.0988 50.8567 44.0732 50.948 44.096C51.0074 44.1108 51.1024 44.1384 51.238 44.1833C51.5076 44.2725 51.8686 44.4065 52.3012 44.5773C53.1628 44.9174 54.24 45.3755 55.3027 45.8398C56.3625 46.3028 57.3953 46.7665 58.1641 47.1148C58.5483 47.2889 58.8659 47.4338 59.0873 47.5352C59.198 47.5859 59.2845 47.6257 59.3433 47.6527C59.3727 47.6662 59.3951 47.6765 59.4101 47.6834C59.4176 47.6869 59.4233 47.6895 59.427 47.6912C59.4289 47.6921 59.4303 47.6927 59.4312 47.6931C59.4316 47.6933 59.4319 47.6935 59.4322 47.6936C59.4323 47.6936 59.4323 47.6937 59.4324 47.6937C59.4324 47.6937 59.4324 47.6937 60.0611 46.3318C60.6897 44.9699 60.6897 44.9699 60.6896 44.9698C60.6895 44.9698 60.6894 44.9697 60.6892 44.9697C60.689 44.9695 60.6885 44.9694 60.688 44.9691C60.687 44.9686 60.6854 44.9679 60.6834 44.967C60.6793 44.9651 60.6734 44.9624 60.6656 44.9588C60.6499 44.9515 60.6268 44.9409 60.5967 44.9271C60.5366 44.8994 60.4485 44.859 60.3363 44.8076C60.1118 44.7048 59.7905 44.5581 59.4022 44.3822C58.6261 44.0306 57.5801 43.561 56.5038 43.0908C55.4304 42.6218 54.3145 42.1467 53.4026 41.7868C52.9486 41.6076 52.5278 41.45 52.1801 41.3351C52.0072 41.2779 51.8347 41.2253 51.6752 41.1854C51.5476 41.1536 51.3121 41.0988 51.0599 41.0988V42.5988ZM60.0611 46.3318C59.3952 47.6759 59.3953 47.676 59.3955 47.6761C59.3956 47.6761 59.3958 47.6762 59.396 47.6763C59.3963 47.6765 59.3968 47.6767 59.3973 47.6769C59.3982 47.6774 59.3995 47.678 59.4011 47.6788C59.4042 47.6803 59.4084 47.6824 59.4138 47.685C59.4245 47.6903 59.4396 47.6977 59.459 47.7071C59.4977 47.726 59.5534 47.7528 59.6245 47.7866C59.7665 47.8542 59.9702 47.9495 60.2224 48.0634C60.7257 48.2907 61.4275 48.5943 62.2212 48.8988C63.7408 49.482 65.8358 50.165 67.5124 50.165L67.5124 48.665L67.5124 47.165C66.4472 47.165 64.8166 46.6815 63.296 46.098C62.5696 45.8192 61.9226 45.5395 61.4571 45.3293C61.225 45.2244 61.0393 45.1375 60.9131 45.0775C60.85 45.0475 60.8019 45.0242 60.7703 45.0089C60.7545 45.0012 60.7429 44.9955 60.7356 44.9919C60.7319 44.9902 60.7294 44.9889 60.7279 44.9882C60.7272 44.9878 60.7268 44.9876 60.7266 44.9875C60.7265 44.9875 60.7265 44.9875 60.7266 44.9875C60.7266 44.9875 60.7267 44.9876 60.7267 44.9876C60.7268 44.9876 60.727 44.9877 60.0611 46.3318ZM67.5124 48.665L67.5124 50.165C69.0256 50.165 70.7884 49.7955 71.795 48.4593C72.903 46.9884 72.587 45.0958 71.563 43.2661L70.2541 43.9987L68.9451 44.7312C69.7492 46.1679 69.4332 46.6085 69.3988 46.6542C69.2629 46.8346 68.7408 47.165 67.5124 47.165L67.5124 48.665ZM70.2541 43.9987L71.563 43.2661C70.8382 41.971 69.5889 41.3223 68.4338 40.919C67.31 40.5266 65.9093 40.2555 64.7403 39.9715C62.2313 39.362 60.055 38.5501 58.7644 36.2622L57.458 36.9992L56.1515 37.7362C58.1028 41.1952 61.4106 42.2498 64.0321 42.8867C65.4285 43.2259 66.5047 43.423 67.4449 43.7513C68.354 44.0687 68.7559 44.3931 68.9451 44.7312L70.2541 43.9987ZM57.458 36.9992L58.7644 36.2622C57.6111 34.2177 56.0817 32.3874 53.188 31.7965L52.8879 33.2661L52.5878 34.7358C54.2641 35.0781 55.199 36.0476 56.1515 37.7362L57.458 36.9992ZM22.7259 44.4653L22.9906 45.9418C25.6243 45.4696 28.8163 44.4972 30.9793 42.3785L29.9297 41.3069L28.88 40.2353C27.3787 41.706 24.9318 42.5459 22.4612 42.9889L22.7259 44.4653ZM22.7259 44.4653L22.4612 42.9889C21.3964 43.1798 19.741 43.0914 18.1683 42.9162C17.4092 42.8317 16.7141 42.7326 16.1782 42.6534C15.9171 42.6147 15.6766 42.5782 15.5018 42.5531C15.3884 42.5368 15.1377 42.4987 14.9565 42.4987V43.9987V45.4987C14.8668 45.4987 14.8461 45.4897 15.0754 45.5226C15.2433 45.5467 15.4582 45.5795 15.7392 45.6211C16.2877 45.7022 17.0241 45.8073 17.8363 45.8978C19.4062 46.0726 21.4527 46.2175 22.9906 45.9418L22.7259 44.4653ZM14.9565 43.9987V42.4987C14.4186 42.4987 14.0589 42.781 13.9985 42.8265C13.8733 42.9209 13.7778 43.0195 13.722 43.0799C13.6048 43.2067 13.4904 43.3553 13.3949 43.484C13.1998 43.747 12.9425 44.1208 12.6706 44.5096C12.1049 45.3183 11.3711 46.3431 10.5119 47.3301C9.6451 48.3258 8.70407 49.2198 7.74631 49.8066C6.79326 50.3905 5.94487 50.5993 5.17623 50.4566L4.90244 51.9314L4.62864 53.4062C6.37353 53.7302 7.98154 53.1807 9.31351 52.3647C10.6408 51.5516 11.8134 50.4041 12.7746 49.2999C13.7434 48.1871 14.552 47.0538 15.1288 46.2292C15.4281 45.8014 15.6422 45.4898 15.8041 45.2716C15.842 45.2206 15.8719 45.1817 15.8949 45.1529C15.9191 45.1225 15.9282 45.1127 15.9251 45.1161C15.923 45.1184 15.9133 45.1288 15.8968 45.1444C15.8814 45.159 15.8502 45.1875 15.805 45.2216C15.7891 45.2337 15.4659 45.4987 14.9565 45.4987V43.9987ZM4.90244 51.9314L5.17623 50.4566C3.96936 50.2326 4.27961 49.9716 4.38974 50.3918C4.43073 50.5483 4.37536 50.6026 4.42872 50.4654C4.48139 50.3299 4.59557 50.1236 4.80361 49.8362C5.23469 49.2407 5.81852 48.6226 6.48045 47.8672C7.05732 47.2089 7.78713 46.3469 8.12711 45.4791L6.73046 44.9319L5.3338 44.3848C5.21678 44.6835 4.8612 45.1631 4.22415 45.8901C3.67216 46.52 2.91354 47.331 2.37349 48.0771C2.09596 48.4605 1.8174 48.903 1.63265 49.3782C1.44858 49.8516 1.31109 50.4783 1.48775 51.1524C1.86923 52.608 3.32199 53.1636 4.62864 53.4062L4.90244 51.9314ZM6.73046 44.9319L8.12711 45.4791C8.51489 44.4892 9.33193 43.1221 10.3098 42.0187C10.7947 41.4715 11.2806 41.0333 11.7274 40.742C12.1866 40.4426 12.4999 40.3657 12.6718 40.3657V38.8657V37.3657C11.7014 37.3657 10.8152 37.7554 10.0889 38.2289C9.35031 38.7105 8.66505 39.3514 8.06452 40.029C6.87133 41.3755 5.86004 43.0415 5.3338 44.3848L6.73046 44.9319ZM12.6718 38.8657V40.3657C14.1835 40.3657 15.7407 39.7654 16.9192 38.916C18.0451 38.1045 19.1989 36.7798 19.1989 35.1327H17.6989H16.1989C16.1989 35.352 15.9815 35.8939 15.1651 36.4823C14.4012 37.0328 13.4449 37.3657 12.6718 37.3657V38.8657ZM17.6989 35.1327H19.1989C19.1989 35.1335 19.1989 35.128 19.1995 35.1152C19.2002 35.1026 19.2014 35.0851 19.2035 35.0623C19.2077 35.0162 19.2149 34.9553 19.2263 34.8791C19.2491 34.7261 19.2862 34.5289 19.3405 34.2917C19.449 33.8176 19.6199 33.2131 19.8627 32.5271C20.3496 31.1514 21.1082 29.4972 22.1883 27.9371C24.3389 24.8307 27.6518 22.2198 32.6579 22.6287L32.78 21.1337L32.9022 19.6387C26.4832 19.1143 22.2554 22.5697 19.7218 26.2294C18.4597 28.0524 17.5902 29.9563 17.0346 31.5262C16.4996 33.0377 16.1989 34.4018 16.1989 35.1327H17.6989ZM32.78 21.1337L32.5473 22.6155C35.3849 23.0613 38.4315 24.1673 41.4861 25.0792C42.967 25.5213 44.4488 25.9141 45.8128 26.0981C47.1576 26.2795 48.5565 26.2836 49.787 25.7938L49.2322 24.4001L48.6774 23.0065C48.1495 23.2166 47.3553 23.279 46.2139 23.125C45.0918 22.9737 43.7943 22.6374 42.3443 22.2045C39.5373 21.3666 36.1162 20.1394 33.0128 19.6519L32.78 21.1337ZM30.1627 41.1133L29.3503 39.8524C29.1378 39.9893 28.9775 40.1399 28.88 40.2353L29.9297 41.3069L30.9793 42.3785C30.9899 42.3681 30.9975 42.3609 31.003 42.3558C31.0057 42.3533 31.0077 42.3515 31.009 42.3503C31.0104 42.3491 31.011 42.3486 31.011 42.3486C31.0109 42.3486 31.0078 42.3513 31.002 42.3557C30.9961 42.3601 30.9871 42.3666 30.9751 42.3743L30.1627 41.1133ZM24.7921 22.308C26.2446 21.9335 26.2445 21.9332 26.2444 21.9328C26.2444 21.9327 26.2443 21.9323 26.2442 21.9321C26.2441 21.9315 26.2439 21.9309 26.2438 21.9302C26.2434 21.9288 26.243 21.9272 26.2425 21.9253C26.2415 21.9214 26.2402 21.9165 26.2386 21.9106C26.2355 21.8987 26.2312 21.8827 26.2257 21.8627C26.2148 21.8228 26.1992 21.7671 26.1791 21.6976C26.1387 21.5589 26.0796 21.3643 26.0015 21.13C25.8464 20.6645 25.6117 20.0279 25.2949 19.3562C24.9812 18.6911 24.5667 17.948 24.0391 17.2951C23.52 16.6528 22.8105 15.9972 21.8809 15.6694L21.3821 17.0841L20.8833 18.4987C21.0886 18.5711 21.3727 18.7686 21.7057 19.1807C22.0303 19.5823 22.3265 20.0952 22.5815 20.636C22.8335 21.1702 23.0258 21.6896 23.1554 22.0785C23.2197 22.2715 23.2674 22.4287 23.2983 22.535C23.3137 22.5881 23.3249 22.6282 23.3318 22.6535C23.3352 22.6661 23.3376 22.675 23.3389 22.6799C23.3396 22.6823 23.34 22.6838 23.3401 22.6842C23.3401 22.6844 23.3401 22.6844 23.34 22.6841C23.34 22.6839 23.3399 22.6837 23.3399 22.6834C23.3398 22.6833 23.3398 22.683 23.3397 22.683C23.3397 22.6827 23.3396 22.6824 24.7921 22.308ZM21.3821 17.0841L21.8809 15.6694C20.396 15.1459 18.8168 15.3365 17.5318 15.77C16.2516 16.2018 15.0495 16.9458 14.2888 17.8085L15.4139 18.8005L16.5389 19.7926C16.8808 19.4049 17.596 18.9144 18.4907 18.6126C19.3808 18.3123 20.2344 18.2699 20.8833 18.4987L21.3821 17.0841ZM15.4139 18.8005L14.2888 17.8085C13.6014 18.588 12.9323 19.7075 12.5925 20.971C12.2495 22.2468 12.2187 23.7766 12.9911 25.2251L14.3147 24.5194L15.6383 23.8137C15.3181 23.2131 15.2856 22.5087 15.4896 21.75C15.697 20.9789 16.1237 20.2635 16.5389 19.7926L15.4139 18.8005ZM14.3147 24.5194L12.9911 25.2251C13.4246 26.0381 14.1269 26.6576 14.7904 27.1158C15.4711 27.5858 16.2269 27.9647 16.9046 28.2573C17.588 28.5523 18.2282 28.7751 18.6957 28.924C18.9306 28.9988 19.1248 29.0558 19.2626 29.0948C19.3316 29.1143 19.3866 29.1293 19.4258 29.1398C19.4453 29.1451 19.461 29.1492 19.4724 29.1522C19.4781 29.1537 19.4828 29.1549 19.4864 29.1558C19.4882 29.1563 19.4897 29.1567 19.491 29.157C19.4916 29.1571 19.4922 29.1573 19.4927 29.1574C19.4929 29.1575 19.4932 29.1575 19.4933 29.1576C19.4936 29.1577 19.4939 29.1577 19.8643 27.7042C20.2347 26.2506 20.2349 26.2507 20.2352 26.2507C20.2352 26.2507 20.2354 26.2508 20.2355 26.2508C20.2358 26.2509 20.2359 26.2509 20.236 26.251C20.2362 26.251 20.2361 26.251 20.2357 26.2509C20.235 26.2507 20.2333 26.2503 20.2305 26.2495C20.225 26.2481 20.2155 26.2456 20.2022 26.242C20.1755 26.2349 20.1337 26.2235 20.0787 26.2079C19.9685 26.1768 19.8059 26.1291 19.6059 26.0654C19.2036 25.9373 18.6613 25.7481 18.0938 25.5031C17.5207 25.2556 16.9574 24.9664 16.4951 24.6472C16.0156 24.3161 15.7511 24.0252 15.6383 23.8137L14.3147 24.5194ZM58.8293 33.2661L57.6903 34.2422C58.3579 35.0213 59.5507 35.9809 60.8367 36.8179C62.1343 37.6624 63.6856 38.4859 65.125 38.9058L65.5451 37.4658L65.9652 36.0259C64.9189 35.7206 63.6454 35.0664 62.4731 34.3035C61.2893 33.533 60.367 32.7554 59.9683 32.2901L58.8293 33.2661ZM65.5451 37.4658L65.125 38.9058C66.7602 39.3828 67.314 39.3413 70.0889 40.2857L70.5722 38.8657L71.0555 37.4457C68.3462 36.5236 67.0437 36.3405 65.9652 36.0259L65.5451 37.4658ZM70.5722 38.8657L70.0889 40.2857C71.4143 40.7369 71.5262 41.4581 71.4947 41.7184C71.4604 42.0013 71.191 42.4987 70.2541 42.4987V43.9987V45.4987C72.5162 45.4987 74.2339 44.0517 74.4729 42.0793C74.7146 40.0842 73.3861 38.239 71.0555 37.4457L70.5722 38.8657ZM49.2322 24.4001L49.787 25.7938C51.7992 24.9927 53.0706 23.7963 53.5356 22.3772C53.9923 20.9831 53.5827 19.5437 52.5978 18.7257L51.6394 19.8796L50.681 21.0335C50.6441 21.0029 50.7893 21.1238 50.6847 21.4431C50.5882 21.7375 50.182 22.4076 48.6774 23.0065L49.2322 24.4001Z" fill="#ECECEC"/>
</g>
<defs>
<clipPath id="clip0_139_511">
<rect width="75" height="54" fill="white"/>
</clipPath>
</defs>
</svg>
