<svg width="60" height="60" viewBox="0 0 60 60" fill="none" xmlns="http://www.w3.org/2000/svg">
<path d="M9.46487 20.8779C9.11468 19.2998 9.16845 17.6588 9.6212 16.1071C10.074 14.5553 10.911 13.1431 12.0548 12.0013C13.1986 10.8594 14.612 10.025 16.1641 9.5753C17.7162 9.12562 19.3566 9.07526 20.9333 9.4289C21.8012 8.0711 22.9967 6.95371 24.4098 6.1797C25.8228 5.4057 27.4079 5 29.0189 5C30.6299 5 32.2149 5.4057 33.628 6.1797C35.041 6.95371 36.2365 8.0711 37.1044 9.4289C38.6835 9.07372 40.3268 9.12385 41.8813 9.57462C43.4359 10.0254 44.8512 10.8622 45.9957 12.0071C47.1401 13.152 47.9766 14.5679 48.4272 16.1231C48.8778 17.6782 48.9279 19.3222 48.5728 20.9019C49.9301 21.7701 51.0471 22.9661 51.8208 24.3797C52.5945 25.7933 53 27.379 53 28.9906C53 30.6022 52.5945 32.1879 51.8208 33.6015C51.0471 35.0151 49.9301 36.2111 48.5728 37.0793C48.9263 38.6566 48.876 40.2977 48.4265 41.8504C47.977 43.4031 47.1429 44.8171 46.0015 45.9613C44.8601 47.1056 43.4484 47.943 41.8973 48.3959C40.3462 48.8488 38.7058 48.9026 37.1284 48.5523C36.2617 49.9153 35.0652 51.0375 33.6497 51.8149C32.2343 52.5924 30.6456 53 29.0309 53C27.4161 53 25.8274 52.5924 24.412 51.8149C22.9965 51.0375 21.8001 49.9153 20.9333 48.5523C19.3566 48.9059 17.7162 48.8556 16.1641 48.4059C14.612 47.9562 13.1986 47.1218 12.0548 45.9799C10.911 44.8381 10.074 43.4258 9.6212 41.8741C9.16845 40.3223 9.11468 38.6814 9.46487 37.1033C8.09719 36.2374 6.97063 35.0395 6.18999 33.6211C5.40936 32.2027 5 30.6098 5 28.9906C5 27.3714 5.40936 25.7785 6.18999 24.3601C6.97063 22.9417 8.09719 21.7438 9.46487 20.8779Z" stroke="#ECECEC" stroke-width="3" stroke-linecap="round" stroke-linejoin="round"/>
<path d="M22.7246 22.5C23.3124 20.8291 24.4725 19.4202 25.9995 18.5228C27.5265 17.6254 29.3218 17.2973 31.0676 17.5967C32.8133 17.8962 34.3967 18.8038 35.5373 20.1588C36.678 21.5138 37.3022 23.2288 37.2996 25C37.2996 30 29.7996 32.5 29.7996 32.5" stroke="#ECECEC" stroke-width="3" stroke-linecap="round" stroke-linejoin="round"/>
<path d="M30 42.5H30.025" stroke="#ECECEC" stroke-width="3" stroke-linecap="round" stroke-linejoin="round"/>
</svg>
