<svg width="50" height="50" viewBox="0 0 50 50" fill="none" xmlns="http://www.w3.org/2000/svg">
<path d="M37.4397 8.92729C38.072 8.54792 38.7936 8.34313 39.5309 8.33383C40.2682 8.32453 40.9947 8.51104 41.6363 8.87434C42.278 9.23763 42.8117 9.76469 43.1831 10.4017C43.5544 11.0387 43.7501 11.7629 43.7501 12.5002V37.5002C43.7501 38.2376 43.5544 38.9617 43.1831 39.5987C42.8117 40.2357 42.278 40.7628 41.6363 41.1261C40.9947 41.4894 40.2682 41.6759 39.5309 41.6666C38.7936 41.6573 38.072 41.4525 37.4397 41.0731L16.6126 28.5773C15.9943 28.2079 15.4824 27.6845 15.1267 27.0583C14.7709 26.432 14.5836 25.7243 14.583 25.0041C14.5824 24.2838 14.7684 23.5758 15.1231 22.9489C15.4777 22.322 15.9887 21.7978 16.6063 21.4273L37.4397 8.92729Z" stroke="#ECECEC" stroke-width="3" stroke-linecap="round" stroke-linejoin="round"/>
<path d="M12 41.6668V8.3335" stroke="#ECECEC" stroke-width="3" stroke-linecap="round" stroke-linejoin="round"/>
</svg>
