<svg width="60" height="60" viewBox="0 0 60 60" fill="none" xmlns="http://www.w3.org/2000/svg">
<path d="M47.5 6C51.0899 6 54 8.91015 54 12.5V47.5C54 51.0899 51.0899 54 47.5 54H12.5C8.91015 54 6 51.0899 6 47.5V12.5C6 8.91015 8.91015 6 12.5 6H47.5ZM12.5 9C10.567 9 9 10.567 9 12.5V47.5C9 49.433 10.567 51 12.5 51H47.5C49.433 51 51 49.433 51 47.5V12.5C51 10.567 49.433 9 47.5 9H12.5ZM33.5 14.9365C34.3284 14.9365 35 15.6081 35 16.4365V19.8525C36.231 22.3113 38.7721 24 41.709 24C42.5374 24 43.209 24.6716 43.209 25.5C43.209 26.3284 42.5374 27 41.709 27C39.1567 27 36.8192 26.0875 35 24.5732V34.4111C35 34.469 34.9956 34.5259 34.9893 34.582C34.9956 34.7206 35 34.8599 35 35C35 39.9706 30.9706 44 26 44C21.0294 44 17 39.9706 17 35C17 30.0294 21.0294 26 26 26C28.3054 26 30.4077 26.8675 32 28.293V16.4365C32 15.6081 32.6716 14.9365 33.5 14.9365ZM26 29C22.6863 29 20 31.6863 20 35C20 38.3137 22.6863 41 26 41C29.3137 41 32 38.3137 32 35C32 31.6863 29.3137 29 26 29Z" fill="url(#paint0_linear_209_1322)"/>
<defs>
<linearGradient id="paint0_linear_209_1322" x1="30" y1="6" x2="30" y2="54" gradientUnits="userSpaceOnUse">
<stop stop-color="#00F2FF"/>
<stop offset="1" stop-color="#FF00FF"/>
</linearGradient>
</defs>
</svg>
