<svg width="50" height="50" viewBox="0 0 50 50" fill="none" xmlns="http://www.w3.org/2000/svg">
<path d="M38 8.3335V41.6668" stroke="#ECECEC" stroke-width="3" stroke-linecap="round" stroke-linejoin="round"/>
<path d="M12.5604 8.92729C11.9281 8.54792 11.2065 8.34313 10.4692 8.33383C9.73194 8.32453 9.00539 8.51104 8.36375 8.87434C7.72211 9.23763 7.18836 9.76469 6.81701 10.4017C6.44565 11.0387 6.24999 11.7629 6.25 12.5002V37.5002C6.24999 38.2376 6.44565 38.9617 6.81701 39.5987C7.18836 40.2357 7.72211 40.7628 8.36375 41.1261C9.00539 41.4894 9.73194 41.6759 10.4692 41.6666C11.2065 41.6573 11.9281 41.4525 12.5604 41.0731L33.3875 28.5773C34.0058 28.2079 34.5177 27.6845 34.8734 27.0583C35.2291 26.432 35.4165 25.7243 35.4171 25.0041C35.4177 24.2838 35.2316 23.5758 34.877 22.9489C34.5224 22.322 34.0114 21.7978 33.3937 21.4273L12.5604 8.92729Z" stroke="#ECECEC" stroke-width="3" stroke-linecap="round" stroke-linejoin="round"/>
</svg>
