<svg width="40" height="40" viewBox="0 0 40 40" fill="none" xmlns="http://www.w3.org/2000/svg">
<path d="M3.43621 20.5801C3.29731 20.2059 3.29731 19.7943 3.43621 19.4201C4.78904 16.1399 7.0854 13.3352 10.0342 11.3616C12.9829 9.38804 16.4513 8.33447 19.9995 8.33447C23.5478 8.33447 27.0162 9.38804 29.9649 11.3616C32.9137 13.3352 35.21 16.1399 36.5629 19.4201C36.7018 19.7943 36.7018 20.2059 36.5629 20.5801C35.21 23.8604 32.9137 26.665 29.9649 28.6386C27.0162 30.6122 23.5478 31.6658 19.9995 31.6658C16.4513 31.6658 12.9829 30.6122 10.0342 28.6386C7.0854 26.665 4.78904 23.8604 3.43621 20.5801Z" stroke="#ECECEC" stroke-width="3" stroke-linecap="round" stroke-linejoin="round"/>
<path d="M20 25C22.7614 25 25 22.7614 25 20C25 17.2386 22.7614 15 20 15C17.2386 15 15 17.2386 15 20C15 22.7614 17.2386 25 20 25Z" stroke="#ECECEC" stroke-width="3" stroke-linecap="round" stroke-linejoin="round"/>
</svg>
