<svg width="75" height="54" viewBox="0 0 75 54" fill="none" xmlns="http://www.w3.org/2000/svg">
<path d="M57.375 17.6669C57.3742 16.8923 57.1698 16.1316 56.7821 15.4611C56.3945 14.7905 55.8374 14.2337 55.1667 13.8464L39.7083 5.01311C39.0369 4.62546 38.2753 4.42139 37.5 4.42139C36.7247 4.42139 35.9631 4.62546 35.2917 5.01311L19.8333 13.8464C19.1626 14.2337 18.6055 14.7905 18.2179 15.4611C17.8302 16.1316 17.6258 16.8923 17.625 17.6669V35.3335C17.6258 36.108 17.8302 36.8687 18.2179 37.5393C18.6055 38.2098 19.1626 38.7667 19.8333 39.1539L35.2917 47.9873C35.9631 48.3749 36.7247 48.579 37.5 48.579C38.2753 48.579 39.0369 48.3749 39.7083 47.9873L55.1667 39.1539C55.8374 38.7667 56.3945 38.2098 56.7821 37.5393C57.1698 36.8687 57.3742 36.108 57.375 35.3335V17.6669Z" stroke="#ECECEC" stroke-width="3" stroke-linecap="round" stroke-linejoin="round"/>
<path d="M18.2876 15.4585L37.5001 26.5002L56.7126 15.4585" stroke="#ECECEC" stroke-width="3" stroke-linecap="round" stroke-linejoin="round"/>
<path d="M37.5 48.5833V26.5" stroke="#ECECEC" stroke-width="3" stroke-linecap="round" stroke-linejoin="round"/>
</svg>
