<svg width="60" height="60" viewBox="0 0 60 60" fill="none" xmlns="http://www.w3.org/2000/svg">
<path d="M14 16.0009C13.9998 15.2972 14.1795 14.6058 14.5209 13.9966C14.8624 13.3875 15.3535 12.8821 15.9446 12.5315C16.5358 12.181 17.2061 11.9976 17.8879 12C18.5696 12.0024 19.2387 12.1905 19.8276 12.5451L43.0699 26.5402C43.6565 26.8916 44.1435 27.3957 44.4822 28.0021C44.8208 28.6086 44.9994 29.2962 45 29.9963C45.0006 30.6963 44.8232 31.3842 44.4855 31.9913C44.1478 32.5984 43.6617 33.1034 43.0758 33.4558L19.8276 47.4548C19.2387 47.8095 18.5696 47.9976 17.8879 48C17.2061 48.0024 16.5358 47.819 15.9446 47.4685C15.3535 47.1179 14.8624 46.6125 14.5209 46.0034C14.1795 45.3942 13.9998 44.7028 14 43.9991V16.0009Z" fill="url(#paint0_linear_184_1161)" fill-opacity="0.93" stroke="#ECECEC" stroke-width="3" stroke-linecap="round" stroke-linejoin="round"/>
<defs>
<linearGradient id="paint0_linear_184_1161" x1="29.8863" y1="11.601" x2="29.8863" y2="48.3986" gradientUnits="userSpaceOnUse">
<stop stop-color="#00F2FF"/>
<stop offset="1" stop-color="#4D4DFF"/>
</linearGradient>
</defs>
</svg>
