<svg width="60" height="60" viewBox="0 0 60 60" fill="none" xmlns="http://www.w3.org/2000/svg">
<path d="M35.0989 8C36.0009 7.99999 36.8861 8.26836 37.6607 8.7767C38.4353 9.28504 39.0705 10.0144 39.4989 10.8875L40.7139 13.3625C41.1424 14.2356 41.7776 14.965 42.5522 15.4733C43.3268 15.9816 44.212 16.25 45.1139 16.25H50.1064C51.4325 16.25 52.7043 16.8295 53.642 17.8609C54.5797 18.8924 55.1064 20.2913 55.1064 21.75V46.5C55.1064 47.9587 54.5797 49.3576 53.642 50.3891C52.7043 51.4205 51.4325 52 50.1064 52H10.1064C8.78036 52 7.50859 51.4205 6.57091 50.3891C5.63323 49.3576 5.10645 47.9587 5.10645 46.5V21.75C5.10645 20.2913 5.63323 18.8924 6.57091 17.8609C7.50859 16.8295 8.78036 16.25 10.1064 16.25H15.0989C16 16.2501 16.8843 15.9823 17.6584 15.475C18.4325 14.9676 19.0675 14.2397 19.4964 13.368L20.7189 10.882C21.1478 10.0103 21.7829 9.28235 22.557 8.77504C23.3311 8.26773 24.2154 7.99995 25.1164 8H35.0989Z" stroke="#ECECEC" stroke-width="3" stroke-linecap="round" stroke-linejoin="round"/>
<path d="M30.1064 42C35.6293 42 40.1064 37.5228 40.1064 32C40.1064 26.4772 35.6293 22 30.1064 22C24.5836 22 20.1064 26.4772 20.1064 32C20.1064 37.5228 24.5836 42 30.1064 42Z" stroke="#ECECEC" stroke-width="3" stroke-linecap="round" stroke-linejoin="round"/>
</svg>
