<svg width="60" height="60" viewBox="0 0 60 60" fill="none" xmlns="http://www.w3.org/2000/svg">
<path fill-rule="evenodd" clip-rule="evenodd" d="M47.0577 6.5C48.7662 6.5 50.4052 7.17854 51.6133 8.38672C52.8215 9.59502 53.5001 11.2347 53.5001 12.9434C53.4999 14.6519 52.8214 16.2908 51.6133 17.499C51.6064 17.506 51.599 17.5127 51.5919 17.5195L26.3145 41.8154C26.6928 43.7836 26.4871 45.8204 25.7198 47.6729C24.944 49.5457 23.6299 51.1462 21.9444 52.2725C20.2589 53.3987 18.2772 53.9999 16.2501 54H7.50006V53.999C6.70873 54 5.93488 53.7671 5.27643 53.3281C4.61733 52.8887 4.1032 52.263 3.79986 51.5312C3.4967 50.7996 3.41746 49.9944 3.57232 49.2178C3.724 48.4573 4.09414 47.7581 4.6358 47.2041C5.51255 46.268 6.00041 45.0326 6.00006 43.75C6.00006 41.7229 6.60052 39.7412 7.72662 38.0557C8.85289 36.3701 10.4543 35.0561 12.3272 34.2803C13.6182 33.7455 14.9986 33.4829 16.3829 33.501C16.4079 33.4731 16.4335 33.4453 16.461 33.4189L42.5235 8.36621C43.7295 7.17108 45.359 6.50005 47.0577 6.5ZM17.6641 36.6396C16.2579 36.36 14.8003 36.5032 13.4756 37.0518C12.1511 37.6004 11.0184 38.5296 10.2217 39.7217C9.42511 40.9139 9.00006 42.3161 9.00006 43.75L8.99029 44.1318C8.90023 46.0387 8.13508 47.8567 6.82428 49.2559C6.8128 49.2681 6.80101 49.2801 6.78912 49.292C6.64892 49.4318 6.55344 49.6105 6.51471 49.8047C6.47604 49.9988 6.49559 50.2 6.57135 50.3828C6.64718 50.5657 6.77573 50.7222 6.94049 50.832C7.10524 50.9419 7.29911 51.0003 7.49713 51H16.2501C17.6837 50.9999 19.0853 50.5748 20.2774 49.7783C21.4696 48.9817 22.3986 47.8491 22.9473 46.5244C23.496 45.1998 23.6401 43.7422 23.3604 42.3359C23.0807 40.9296 22.39 39.637 21.376 38.623C20.3622 37.6093 19.0703 36.9194 17.6641 36.6396ZM19.9737 34.2012C21.2887 34.7139 22.49 35.4949 23.4971 36.502C24.1648 37.1696 24.7316 37.9235 25.1885 38.7383L32.545 31.666L27.6768 26.7979L19.9737 34.2012ZM47.0577 9.5C46.1449 9.50005 45.2696 9.86318 44.6241 10.5088C44.6171 10.5158 44.6097 10.5225 44.6026 10.5293L29.8399 24.7188L34.7081 29.5869L49.5128 15.3564C50.1451 14.713 50.4999 13.8465 50.5001 12.9434C50.5001 12.0304 50.1375 11.1544 49.4922 10.5088C48.8467 9.86316 47.9705 9.5 47.0577 9.5Z" fill="url(#paint0_linear_207_1120)"/>
<defs>
<linearGradient id="paint0_linear_207_1120" x1="28.4976" y1="6.5" x2="28.4976" y2="54" gradientUnits="userSpaceOnUse">
<stop stop-color="#00F2FF"/>
<stop offset="1" stop-color="#FF00FF"/>
</linearGradient>
</defs>
</svg>
