<svg width="53" height="53" viewBox="0 0 53 53" fill="none" xmlns="http://www.w3.org/2000/svg">
<path d="M41.5 46.3655C40.9318 43.5857 39.1092 41.0548 36.3596 39.2276C33.6099 37.4004 30.1136 36.3967 26.4989 36.397C22.8842 36.3972 19.3881 37.4013 16.6389 39.2289C13.8897 41.0564 12.0676 43.5876 11.5 46.3675" stroke="#ECECEC" stroke-width="3" stroke-linecap="round" stroke-linejoin="round"/>
<path d="M26.5 31.4118C30.9183 31.4118 34.5 27.8406 34.5 23.4354C34.5 19.0301 30.9183 15.459 26.5 15.459C22.0817 15.459 18.5 19.0301 18.5 23.4354C18.5 27.8406 22.0817 31.4118 26.5 31.4118Z" stroke="#ECECEC" stroke-width="3" stroke-linecap="round" stroke-linejoin="round"/>
<path d="M26.5 51.3525C40.3071 51.3525 51.5 40.1926 51.5 26.4263C51.5 12.6599 40.3071 1.5 26.5 1.5C12.6929 1.5 1.5 12.6599 1.5 26.4263C1.5 40.1926 12.6929 51.3525 26.5 51.3525Z" stroke="#ECECEC" stroke-width="3" stroke-linecap="round" stroke-linejoin="round"/>
</svg>
