<svg width="73" height="59" viewBox="0 0 73 59" fill="none" xmlns="http://www.w3.org/2000/svg">
<path d="M4 25.4561C1.79086 25.4561 0 27.2469 0 29.4561C0 31.6652 1.79086 33.4561 4 33.4561V29.4561V25.4561ZM71.8284 32.2845C73.3905 30.7224 73.3905 28.1897 71.8284 26.6276L46.3726 1.17178C44.8105 -0.390314 42.2778 -0.390314 40.7157 1.17178C39.1536 2.73388 39.1536 5.26654 40.7157 6.82864L63.3431 29.4561L40.7157 52.0835C39.1536 53.6456 39.1536 56.1782 40.7157 57.7403C42.2778 59.3024 44.8105 59.3024 46.3726 57.7403L71.8284 32.2845ZM4 29.4561V33.4561H69V29.4561V25.4561H4V29.4561Z" fill="url(#paint0_linear_205_956)"/>
<defs>
<linearGradient id="paint0_linear_205_956" x1="4" y1="56.4561" x2="69.2342" y2="-2.78603" gradientUnits="userSpaceOnUse">
<stop stop-color="#FF00FF"/>
<stop offset="1" stop-color="#00F2FF"/>
</linearGradient>
</defs>
</svg>
