<svg width="117" height="89" viewBox="0 0 117 89" fill="none" xmlns="http://www.w3.org/2000/svg">
<path d="M6 38.1836C2.68629 38.1836 0 40.8699 0 44.1836C0 47.4973 2.68629 50.1836 6 50.1836V44.1836V38.1836ZM115.243 48.4262C117.586 46.0831 117.586 42.2841 115.243 39.941L77.0589 1.75719C74.7157 -0.58596 70.9167 -0.58596 68.5736 1.75719C66.2304 4.10033 66.2304 7.89932 68.5736 10.2425L102.515 44.1836L68.5736 78.1247C66.2304 80.4679 66.2304 84.2669 68.5736 86.61C70.9167 88.9531 74.7157 88.9531 77.0589 86.61L115.243 48.4262ZM6 44.1836V50.1836H111V44.1836V38.1836H6V44.1836Z" fill="url(#paint0_linear_204_564)"/>
<defs>
<linearGradient id="paint0_linear_204_564" x1="6" y1="44.6836" x2="132" y2="44.1836" gradientUnits="userSpaceOnUse">
<stop stop-color="#FF00FF"/>
<stop offset="1" stop-color="#00F2FF"/>
</linearGradient>
</defs>
</svg>
