<svg width="310" height="310" viewBox="0 0 310 310" fill="none" xmlns="http://www.w3.org/2000/svg">
<path d="M222.051 86.812C219.231 84.3225 215.526 82.812 211.468 82.812H99.4678C90.6313 82.812 83.4678 89.9754 83.4678 98.812V210.812C83.4678 219.649 90.6313 226.812 99.4678 226.812H211.468C220.304 226.812 227.468 219.649 227.468 210.812V112.312M95.4678 207.789C131.337 231.467 110.458 141.795 148.468 167.487M193.926 115.229L209.051 130.354M188.728 150.677L246.248 93.1666C248.256 91.1596 249.383 88.4374 249.383 85.5991C249.383 82.7607 248.256 80.0386 246.248 78.0315C244.241 76.0245 241.519 74.8969 238.681 74.8969C235.843 74.8969 233.12 76.0245 231.113 78.0315L173.593 135.552M21.2339 100.406V209.218C21.2339 223.509 28.8578 236.714 41.2339 243.859L135.468 298.265C147.844 305.41 163.092 305.41 175.468 298.265L269.702 243.859C282.078 236.714 289.702 223.509 289.702 209.218V100.406C289.702 86.1154 282.078 72.9103 269.702 65.765L175.468 11.359C163.092 4.21367 147.844 4.21367 135.468 11.359L41.2339 65.765C28.8578 72.9103 21.2339 86.1154 21.2339 100.406ZM171.239 170.687C174.729 170.687 178.14 169.652 181.042 167.713C183.944 165.774 186.206 163.019 187.541 159.794C188.877 156.57 189.226 153.022 188.545 149.599C187.864 146.176 186.184 143.032 183.716 140.564C181.248 138.096 178.104 136.416 174.681 135.735C171.258 135.054 167.71 135.403 164.486 136.739C161.261 138.074 158.506 140.336 156.567 143.238C154.628 146.14 153.593 149.551 153.593 153.041C153.594 156.397 152.317 159.627 150.023 162.076C149.316 162.781 148.835 163.68 148.639 164.66C148.444 165.639 148.544 166.654 148.926 167.576C149.309 168.499 149.956 169.287 150.787 169.84C151.618 170.394 152.594 170.689 153.593 170.687H171.239Z" stroke="url(#paint0_linear_208_1225)" stroke-width="3" stroke-linecap="round" stroke-linejoin="round"/>
<defs>
<linearGradient id="paint0_linear_208_1225" x1="21.4678" y1="303.812" x2="194" y2="115" gradientUnits="userSpaceOnUse">
<stop stop-color="#FF00FF" stop-opacity="0.9"/>
<stop offset="1" stop-color="#01DBE6"/>
</linearGradient>
</defs>
</svg>
