<svg width="310" height="310" viewBox="0 0 310 310" fill="none" xmlns="http://www.w3.org/2000/svg">
<path d="M88 148.612H110.167C114.086 148.612 117.845 150.098 120.616 152.745C123.388 155.391 124.944 158.98 124.944 162.723V183.889C124.944 187.632 123.388 191.221 120.616 193.867C117.845 196.514 114.086 198 110.167 198H102.778C98.8585 198 95.0997 196.514 92.3284 193.867C89.557 191.221 88 187.632 88 183.889V134.5C88 117.659 95.0063 101.508 107.477 89.5992C119.949 77.6906 136.863 71.0005 154.5 71.0005C172.137 71.0005 189.051 77.6906 201.523 89.5992C213.994 101.508 221 117.659 221 134.5V183.889C221 187.632 219.443 191.221 216.672 193.867C213.9 196.514 210.142 198 206.222 198H198.833C194.914 198 191.155 196.514 188.384 193.867C185.613 191.221 184.056 187.632 184.056 183.889V162.723C184.056 158.98 185.613 155.391 188.384 152.745C191.155 150.098 194.914 148.612 198.833 148.612H221M163.375 238.75V212.209L187.875 208.125V234.667M163.375 238.75C163.375 242.133 160.633 244.875 157.25 244.875C153.867 244.875 151.125 242.133 151.125 238.75C151.125 235.368 153.867 232.625 157.25 232.625C160.633 232.625 163.375 235.368 163.375 238.75ZM187.875 234.667C187.875 238.05 185.133 240.792 181.75 240.792C178.367 240.792 175.625 238.05 175.625 234.667C175.625 231.284 178.367 228.542 181.75 228.542C185.133 228.542 187.875 231.284 187.875 234.667ZM163.375 220.375L187.875 216.292M163 140.5C163 143.998 160.165 146.834 156.667 146.834C153.169 146.834 150.333 143.998 150.333 140.5C150.333 137.003 153.169 134.167 156.667 134.167C160.165 134.167 163 137.003 163 140.5ZM163 140.5V115.167L174.083 121.5M145.333 206.5C145.333 209.998 142.498 212.834 139 212.834C135.502 212.834 132.667 209.998 132.667 206.5C132.667 203.003 135.502 200.167 139 200.167C142.498 200.167 145.333 203.003 145.333 206.5ZM145.333 206.5L145.333 181.167M20.7661 100.594V209.406C20.7661 223.697 28.3901 236.902 40.7661 244.047L135 298.453C147.376 305.599 162.624 305.599 175 298.453L269.234 244.047C281.61 236.902 289.234 223.697 289.234 209.406V100.594C289.234 86.3038 281.61 73.0988 269.234 65.9534L175 11.5475C162.624 4.40215 147.376 4.40215 135 11.5475L40.7661 65.9534C28.3901 73.0988 20.7661 86.3038 20.7661 100.594Z" stroke="url(#paint0_linear_208_1227)" stroke-width="3" stroke-linecap="round" stroke-linejoin="round"/>
<defs>
<linearGradient id="paint0_linear_208_1227" x1="21" y1="304" x2="193.532" y2="115.188" gradientUnits="userSpaceOnUse">
<stop stop-color="#FF00FF" stop-opacity="0.9"/>
<stop offset="1" stop-color="#01DBE6"/>
</linearGradient>
</defs>
</svg>
