<svg width="310" height="310" viewBox="0 0 310 310" fill="none" xmlns="http://www.w3.org/2000/svg">
<path d="M134.917 85.6324C135.403 80.5143 137.781 75.7615 141.585 72.3024C145.39 68.8433 150.347 66.9265 155.489 66.9265C160.632 66.9265 165.589 68.8433 169.394 72.3024C173.198 75.7615 175.576 80.5143 176.062 85.6324C176.355 88.9387 177.439 92.1258 179.225 94.924C181.01 97.7223 183.444 100.049 186.319 101.708C189.195 103.367 192.428 104.309 195.745 104.454C199.061 104.599 202.364 103.942 205.373 102.541C210.046 100.42 215.341 100.113 220.228 101.68C225.114 103.247 229.243 106.576 231.81 111.018C234.377 115.461 235.2 120.699 234.116 125.715C233.033 130.73 230.122 135.162 225.951 138.15C223.234 140.056 221.016 142.588 219.485 145.532C217.954 148.476 217.155 151.745 217.155 155.063C217.155 158.381 217.954 161.65 219.485 164.594C221.016 167.538 223.234 170.07 225.951 171.976C230.122 174.964 233.033 179.397 234.116 184.412C235.2 189.427 234.377 194.665 231.81 199.108C229.243 203.551 225.114 206.879 220.228 208.446C215.341 210.013 210.046 209.706 205.373 207.585C202.364 206.184 199.061 205.528 195.745 205.673C192.428 205.818 189.195 206.759 186.319 208.418C183.444 210.077 181.01 212.404 179.225 215.202C177.439 218 176.355 221.188 176.062 224.494C175.576 229.612 173.198 234.365 169.394 237.824C165.589 241.283 160.632 243.2 155.489 243.2C150.347 243.2 145.39 241.283 141.585 237.824C137.781 234.365 135.403 229.612 134.917 224.494C134.625 221.186 133.54 217.998 131.754 215.199C129.968 212.399 127.534 210.072 124.657 208.413C121.78 206.754 118.546 205.812 115.228 205.668C111.91 205.524 108.606 206.182 105.597 207.585C100.924 209.706 95.6289 210.013 90.7423 208.446C85.8556 206.879 81.727 203.551 79.1598 199.108C76.5926 194.665 75.7706 189.427 76.8537 184.412C77.9368 179.397 80.8476 174.964 85.0195 171.976C87.7362 170.07 89.9539 167.538 91.4849 164.594C93.0159 161.65 93.8152 158.381 93.8152 155.063C93.8152 151.745 93.0159 148.476 91.4849 145.532C89.9539 142.588 87.7362 140.056 85.0195 138.15C80.8535 135.161 77.9478 130.73 76.8673 125.718C75.7868 120.706 76.6086 115.472 79.173 111.032C81.7374 106.593 85.8613 103.265 90.7431 101.695C95.6248 100.126 100.916 100.427 105.588 102.541C108.597 103.942 111.9 104.599 115.217 104.454C118.533 104.309 121.766 103.367 124.642 101.708C127.517 100.049 129.951 97.7223 131.736 94.924C133.522 92.1258 134.607 88.9387 134.899 85.6324M134.644 150.292V157.323M142.679 142.257V165.358M150.714 136.23V173.393M159.754 146.275V161.341M167.789 140.248V167.367M175.824 150.292V157.323M21 100.406V209.218C21 223.509 28.624 236.714 41 243.859L135.234 298.265C147.61 305.41 162.858 305.41 175.234 298.265L269.468 243.859C281.844 236.714 289.468 223.509 289.468 209.218V100.406C289.468 86.1154 281.844 72.9103 269.468 65.765L175.234 11.359C162.858 4.21367 147.61 4.21367 135.234 11.359L41 65.765C28.624 72.9103 21 86.1154 21 100.406ZM187.877 154.812C187.877 172.84 173.262 187.455 155.234 187.455C137.206 187.455 122.591 172.84 122.591 154.812C122.591 136.784 137.206 122.169 155.234 122.169C173.262 122.169 187.877 136.784 187.877 154.812Z" stroke="url(#paint0_linear_208_1226)" stroke-width="3" stroke-linecap="round" stroke-linejoin="round"/>
<defs>
<linearGradient id="paint0_linear_208_1226" x1="21.2339" y1="303.812" x2="193.766" y2="115" gradientUnits="userSpaceOnUse">
<stop stop-color="#FF00FF" stop-opacity="0.9"/>
<stop offset="1" stop-color="#01DBE6"/>
</linearGradient>
</defs>
</svg>
