<svg width="265" height="85" viewBox="0 0 265 85" fill="none" xmlns="http://www.w3.org/2000/svg">
<g filter="url(#filter0_d_209_1283)">
<path d="M15 59.8C15 45 29.6021 9.16342 51.5 50C70 84.5 98.9263 60.8292 91.902 44.0983C87.079 32.6106 66.8109 32.1049 66.8109 17.4388C66.8109 2.77272 90.7944 3.78417 90.7944 19.0646" stroke="url(#paint0_linear_209_1283)" stroke-width="8"/>
</g>
<path d="M123.252 30.1527L110.652 59.7807H104.028L108.636 49.5567L100.464 30.1527H107.34L111.984 42.7167L116.592 30.1527H123.252ZM140.958 29.9367C143.31 29.9367 145.182 30.7047 146.574 32.2407C147.99 33.7527 148.698 35.8407 148.698 38.5047V50.2407H142.578V39.3327C142.578 37.9887 142.23 36.9447 141.534 36.2007C140.838 35.4567 139.902 35.0847 138.726 35.0847C137.55 35.0847 136.614 35.4567 135.918 36.2007C135.222 36.9447 134.874 37.9887 134.874 39.3327V50.2407H128.718V30.1527H134.874V32.8167C135.498 31.9287 136.338 31.2327 137.394 30.7287C138.45 30.2007 139.638 29.9367 140.958 29.9367ZM175.152 39.8727C175.152 40.4487 175.116 41.0487 175.044 41.6727H161.112C161.208 42.9207 161.604 43.8807 162.3 44.5527C163.02 45.2007 163.896 45.5247 164.928 45.5247C166.464 45.5247 167.532 44.8767 168.132 43.5807H174.684C174.348 44.9007 173.736 46.0887 172.848 47.1447C171.984 48.2007 170.892 49.0287 169.572 49.6287C168.252 50.2287 166.776 50.5287 165.144 50.5287C163.176 50.5287 161.424 50.1087 159.888 49.2687C158.352 48.4287 157.152 47.2287 156.288 45.6687C155.424 44.1087 154.992 42.2847 154.992 40.1967C154.992 38.1087 155.412 36.2847 156.252 34.7247C157.116 33.1647 158.316 31.9647 159.852 31.1247C161.388 30.2847 163.152 29.8647 165.144 29.8647C167.088 29.8647 168.816 30.2727 170.328 31.0887C171.84 31.9047 173.016 33.0687 173.856 34.5807C174.72 36.0927 175.152 37.8567 175.152 39.8727ZM168.852 38.2527C168.852 37.1967 168.492 36.3567 167.772 35.7327C167.052 35.1087 166.152 34.7967 165.072 34.7967C164.04 34.7967 163.164 35.0967 162.444 35.6967C161.748 36.2967 161.316 37.1487 161.148 38.2527H168.852ZM192.836 45.0207V50.2407H189.704C187.472 50.2407 185.732 49.7007 184.484 48.6207C183.236 47.5167 182.612 45.7287 182.612 43.2567V35.2647H180.164V30.1527H182.612V25.2567H188.768V30.1527H192.8V35.2647H188.768V43.3287C188.768 43.9287 188.912 44.3607 189.2 44.6247C189.488 44.8887 189.968 45.0207 190.64 45.0207H192.836ZM211.853 29.9367C214.157 29.9367 216.005 30.7047 217.396 32.2407C218.789 33.7527 219.485 35.8407 219.485 38.5047V50.2407H213.365V39.3327C213.365 37.9887 213.016 36.9447 212.32 36.2007C211.624 35.4567 210.688 35.0847 209.512 35.0847C208.336 35.0847 207.4 35.4567 206.704 36.2007C206.008 36.9447 205.66 37.9887 205.66 39.3327V50.2407H199.504V23.6007H205.66V32.8527C206.284 31.9647 207.136 31.2567 208.216 30.7287C209.296 30.2007 210.508 29.9367 211.853 29.9367ZM230.098 28.0647C229.018 28.0647 228.13 27.7527 227.434 27.1287C226.762 26.4807 226.426 25.6887 226.426 24.7527C226.426 23.7927 226.762 23.0007 227.434 22.3767C228.13 21.7287 229.018 21.4047 230.098 21.4047C231.154 21.4047 232.018 21.7287 232.69 22.3767C233.386 23.0007 233.734 23.7927 233.734 24.7527C233.734 25.6887 233.386 26.4807 232.69 27.1287C232.018 27.7527 231.154 28.0647 230.098 28.0647ZM233.158 30.1527V50.2407H227.002V30.1527H233.158ZM239.636 40.1607C239.636 38.0967 240.02 36.2847 240.788 34.7247C241.58 33.1647 242.648 31.9647 243.992 31.1247C245.336 30.2847 246.836 29.8647 248.492 29.8647C249.908 29.8647 251.144 30.1527 252.2 30.7287C253.28 31.3047 254.108 32.0607 254.684 32.9967V30.1527H260.84V50.2407H254.684V47.3967C254.084 48.3327 253.244 49.0887 252.164 49.6647C251.108 50.2407 249.872 50.5287 248.456 50.5287C246.824 50.5287 245.336 50.1087 243.992 49.2687C242.648 48.4047 241.58 47.1927 240.788 45.6327C240.02 44.0487 239.636 42.2247 239.636 40.1607ZM254.684 40.1967C254.684 38.6607 254.252 37.4487 253.388 36.5607C252.548 35.6727 251.516 35.2287 250.292 35.2287C249.068 35.2287 248.024 35.6727 247.16 36.5607C246.32 37.4247 245.9 38.6247 245.9 40.1607C245.9 41.6967 246.32 42.9207 247.16 43.8327C248.024 44.7207 249.068 45.1647 250.292 45.1647C251.516 45.1647 252.548 44.7207 253.388 43.8327C254.252 42.9447 254.684 41.7327 254.684 40.1967Z" fill="url(#paint1_linear_209_1283)"/>
<path d="M123.252 30.1527L110.652 59.7807H104.028L108.636 49.5567L100.464 30.1527H107.34L111.984 42.7167L116.592 30.1527H123.252ZM140.958 29.9367C143.31 29.9367 145.182 30.7047 146.574 32.2407C147.99 33.7527 148.698 35.8407 148.698 38.5047V50.2407H142.578V39.3327C142.578 37.9887 142.23 36.9447 141.534 36.2007C140.838 35.4567 139.902 35.0847 138.726 35.0847C137.55 35.0847 136.614 35.4567 135.918 36.2007C135.222 36.9447 134.874 37.9887 134.874 39.3327V50.2407H128.718V30.1527H134.874V32.8167C135.498 31.9287 136.338 31.2327 137.394 30.7287C138.45 30.2007 139.638 29.9367 140.958 29.9367ZM175.152 39.8727C175.152 40.4487 175.116 41.0487 175.044 41.6727H161.112C161.208 42.9207 161.604 43.8807 162.3 44.5527C163.02 45.2007 163.896 45.5247 164.928 45.5247C166.464 45.5247 167.532 44.8767 168.132 43.5807H174.684C174.348 44.9007 173.736 46.0887 172.848 47.1447C171.984 48.2007 170.892 49.0287 169.572 49.6287C168.252 50.2287 166.776 50.5287 165.144 50.5287C163.176 50.5287 161.424 50.1087 159.888 49.2687C158.352 48.4287 157.152 47.2287 156.288 45.6687C155.424 44.1087 154.992 42.2847 154.992 40.1967C154.992 38.1087 155.412 36.2847 156.252 34.7247C157.116 33.1647 158.316 31.9647 159.852 31.1247C161.388 30.2847 163.152 29.8647 165.144 29.8647C167.088 29.8647 168.816 30.2727 170.328 31.0887C171.84 31.9047 173.016 33.0687 173.856 34.5807C174.72 36.0927 175.152 37.8567 175.152 39.8727ZM168.852 38.2527C168.852 37.1967 168.492 36.3567 167.772 35.7327C167.052 35.1087 166.152 34.7967 165.072 34.7967C164.04 34.7967 163.164 35.0967 162.444 35.6967C161.748 36.2967 161.316 37.1487 161.148 38.2527H168.852ZM192.836 45.0207V50.2407H189.704C187.472 50.2407 185.732 49.7007 184.484 48.6207C183.236 47.5167 182.612 45.7287 182.612 43.2567V35.2647H180.164V30.1527H182.612V25.2567H188.768V30.1527H192.8V35.2647H188.768V43.3287C188.768 43.9287 188.912 44.3607 189.2 44.6247C189.488 44.8887 189.968 45.0207 190.64 45.0207H192.836ZM211.853 29.9367C214.157 29.9367 216.005 30.7047 217.396 32.2407C218.789 33.7527 219.485 35.8407 219.485 38.5047V50.2407H213.365V39.3327C213.365 37.9887 213.016 36.9447 212.32 36.2007C211.624 35.4567 210.688 35.0847 209.512 35.0847C208.336 35.0847 207.4 35.4567 206.704 36.2007C206.008 36.9447 205.66 37.9887 205.66 39.3327V50.2407H199.504V23.6007H205.66V32.8527C206.284 31.9647 207.136 31.2567 208.216 30.7287C209.296 30.2007 210.508 29.9367 211.853 29.9367ZM230.098 28.0647C229.018 28.0647 228.13 27.7527 227.434 27.1287C226.762 26.4807 226.426 25.6887 226.426 24.7527C226.426 23.7927 226.762 23.0007 227.434 22.3767C228.13 21.7287 229.018 21.4047 230.098 21.4047C231.154 21.4047 232.018 21.7287 232.69 22.3767C233.386 23.0007 233.734 23.7927 233.734 24.7527C233.734 25.6887 233.386 26.4807 232.69 27.1287C232.018 27.7527 231.154 28.0647 230.098 28.0647ZM233.158 30.1527V50.2407H227.002V30.1527H233.158ZM239.636 40.1607C239.636 38.0967 240.02 36.2847 240.788 34.7247C241.58 33.1647 242.648 31.9647 243.992 31.1247C245.336 30.2847 246.836 29.8647 248.492 29.8647C249.908 29.8647 251.144 30.1527 252.2 30.7287C253.28 31.3047 254.108 32.0607 254.684 32.9967V30.1527H260.84V50.2407H254.684V47.3967C254.084 48.3327 253.244 49.0887 252.164 49.6647C251.108 50.2407 249.872 50.5287 248.456 50.5287C246.824 50.5287 245.336 50.1087 243.992 49.2687C242.648 48.4047 241.58 47.1927 240.788 45.6327C240.02 44.0487 239.636 42.2247 239.636 40.1607ZM254.684 40.1967C254.684 38.6607 254.252 37.4487 253.388 36.5607C252.548 35.6727 251.516 35.2287 250.292 35.2287C249.068 35.2287 248.024 35.6727 247.16 36.5607C246.32 37.4247 245.9 38.6247 245.9 40.1607C245.9 41.6967 246.32 42.9207 247.16 43.8327C248.024 44.7207 249.068 45.1647 250.292 45.1647C251.516 45.1647 252.548 44.7207 253.388 43.8327C254.252 42.9447 254.684 41.7327 254.684 40.1967Z" fill="#ECECEC"/>
<defs>
<filter id="filter0_d_209_1283" x="0" y="0" width="102" height="84.7051" filterUnits="userSpaceOnUse" color-interpolation-filters="sRGB">
<feFlood flood-opacity="0" result="BackgroundImageFix"/>
<feColorMatrix in="SourceAlpha" type="matrix" values="0 0 0 0 0 0 0 0 0 0 0 0 0 0 0 0 0 0 127 0" result="hardAlpha"/>
<feOffset dx="-3" dy="5"/>
<feGaussianBlur stdDeviation="4"/>
<feComposite in2="hardAlpha" operator="out"/>
<feColorMatrix type="matrix" values="0 0 0 0 0 0 0 0 0 0 0 0 0 0 0 0 0 0 0.25 0"/>
<feBlend mode="normal" in2="BackgroundImageFix" result="effect1_dropShadow_209_1283"/>
<feBlend mode="normal" in="SourceGraphic" in2="effect1_dropShadow_209_1283" result="shape"/>
</filter>
<linearGradient id="paint0_linear_209_1283" x1="92.9483" y1="7.32807" x2="10.6891" y2="57.6751" gradientUnits="userSpaceOnUse">
<stop offset="0.134615" stop-color="#00F2FF"/>
<stop offset="0.677885" stop-color="#FF00FF" stop-opacity="0.69"/>
<stop offset="1" stop-color="#4D4DFF"/>
</linearGradient>
<linearGradient id="paint1_linear_209_1283" x1="100.5" y1="37.2407" x2="263.5" y2="37.2407" gradientUnits="userSpaceOnUse">
<stop stop-color="#00F2FF"/>
<stop offset="1" stop-color="#FF00FF"/>
</linearGradient>
</defs>
</svg>
